<svg width="22" height="22" viewBox="0 0 22 22" fill="none" xmlns="http://www.w3.org/2000/svg">
<path d="M5.233 4.834L5.678 2.608C5.76866 2.15444 6.01371 1.74633 6.37144 1.45314C6.72918 1.15995 7.17747 0.999817 7.64 1H14.36C14.8225 0.999817 15.2708 1.15995 15.6286 1.45314C15.9863 1.74633 16.2313 2.15444 16.322 2.608L16.767 4.834C16.8369 5.18279 17.0043 5.50459 17.2498 5.76198C17.4953 6.01938 17.8089 6.20178 18.154 6.288C18.967 6.49138 19.6887 6.96068 20.2044 7.6213C20.72 8.28192 21.0001 9.09595 21 9.934V17C21 18.0609 20.5786 19.0783 19.8284 19.8284C19.0783 20.5786 18.0609 21 17 21H5C3.93913 21 2.92172 20.5786 2.17157 19.8284C1.42143 19.0783 1 18.0609 1 17V9.934C0.999924 9.09595 1.27998 8.28192 1.79564 7.6213C2.31131 6.96068 3.033 6.49138 3.846 6.288C4.19111 6.20178 4.50466 6.01938 4.75019 5.76198C4.99572 5.50459 5.16315 5.18279 5.233 4.834V4.834Z" stroke="white" stroke-width="2" stroke-linecap="round" stroke-linejoin="round"/>
<path d="M11 17C13.2091 17 15 15.2091 15 13C15 10.7909 13.2091 9 11 9C8.79086 9 7 10.7909 7 13C7 15.2091 8.79086 17 11 17Z" stroke="white" stroke-width="2" stroke-linecap="round" stroke-linejoin="round"/>
<path d="M10 5H12" stroke="white" stroke-width="2" stroke-linecap="round" stroke-linejoin="round"/>
</svg>
