<svg width="1132" height="150" viewBox="0 0 1132 150" fill="none" xmlns="http://www.w3.org/2000/svg">
<path d="M0.94375 77.6C0.94375 63.7333 3.94375 51.4 9.94375 40.6C15.9438 29.6667 24.2771 21.2 34.9438 15.2C45.7438 9.06666 57.9438 5.99999 71.5438 5.99999C88.2104 5.99999 102.477 10.4 114.344 19.2C126.21 28 134.144 40 138.144 55.2H100.544C97.7438 49.3333 93.7438 44.8667 88.5438 41.8C83.4771 38.7333 77.6771 37.2 71.1438 37.2C60.6104 37.2 52.0771 40.8667 45.5438 48.2C39.0104 55.5333 35.7438 65.3333 35.7438 77.6C35.7438 89.8667 39.0104 99.6667 45.5438 107C52.0771 114.333 60.6104 118 71.1438 118C77.6771 118 83.4771 116.467 88.5438 113.4C93.7438 110.333 97.7438 105.867 100.544 100H138.144C134.144 115.2 126.21 127.2 114.344 136C102.477 144.667 88.2104 149 71.5438 149C57.9438 149 45.7438 146 34.9438 140C24.2771 133.867 15.9438 125.4 9.94375 114.6C3.94375 103.8 0.94375 91.4667 0.94375 77.6ZM193.288 -1.90735e-06V148H159.088V-1.90735e-06H193.288ZM328.272 36.4V148H294.072V132.8C290.605 137.733 285.872 141.733 279.872 144.8C274.005 147.733 267.472 149.2 260.272 149.2C251.739 149.2 244.205 147.333 237.672 143.6C231.139 139.733 226.072 134.2 222.472 127C218.872 119.8 217.072 111.333 217.072 101.6V36.4H251.072V97C251.072 104.467 253.005 110.267 256.872 114.4C260.739 118.533 265.939 120.6 272.472 120.6C279.139 120.6 284.405 118.533 288.272 114.4C292.139 110.267 294.072 104.467 294.072 97V36.4H328.272ZM387.038 52.2C390.238 47 394.838 42.8 400.838 39.6C406.838 36.4 413.704 34.8 421.438 34.8C430.638 34.8 438.971 37.1333 446.438 41.8C453.904 46.4667 459.771 53.1333 464.038 61.8C468.438 70.4667 470.638 80.5333 470.638 92C470.638 103.467 468.438 113.6 464.038 122.4C459.771 131.067 453.904 137.8 446.438 142.6C438.971 147.267 430.638 149.6 421.438 149.6C413.571 149.6 406.704 148.067 400.838 145C394.971 141.8 390.371 137.6 387.038 132.4V148H352.838V-1.90735e-06H387.038V52.2ZM435.838 92C435.838 83.4667 433.438 76.8 428.638 72C423.971 67.0667 418.171 64.6 411.238 64.6C404.438 64.6 398.638 67.0667 393.838 72C389.171 76.9333 386.838 83.6667 386.838 92.2C386.838 100.733 389.171 107.467 393.838 112.4C398.638 117.333 404.438 119.8 411.238 119.8C418.038 119.8 423.838 117.333 428.638 112.4C433.438 107.333 435.838 100.533 435.838 92Z" fill="#F4A261"/>
<path d="M630.98 35.2C644.846 35.2 655.846 39.4 663.98 47.8C672.246 56.2 676.38 67.8667 676.38 82.8V148H642.38V87.4C642.38 80.2 640.446 74.6667 636.58 70.8C632.846 66.8 627.646 64.8 620.98 64.8C614.313 64.8 609.046 66.8 605.18 70.8C601.446 74.6667 599.58 80.2 599.58 87.4V148H565.58V87.4C565.58 80.2 563.646 74.6667 559.78 70.8C556.046 66.8 550.846 64.8 544.18 64.8C537.513 64.8 532.246 66.8 528.38 70.8C524.646 74.6667 522.78 80.2 522.78 87.4V148H488.58V36.4H522.78V50.4C526.246 45.7333 530.78 42.0667 536.38 39.4C541.98 36.6 548.313 35.2 555.38 35.2C563.78 35.2 571.246 37 577.78 40.6C584.446 44.2 589.646 49.3333 593.38 56C597.246 49.8667 602.513 44.8667 609.18 41C615.846 37.1333 623.113 35.2 630.98 35.2ZM693.498 92C693.498 80.5333 695.632 70.4667 699.898 61.8C704.298 53.1333 710.232 46.4667 717.698 41.8C725.165 37.1333 733.498 34.8 742.698 34.8C750.565 34.8 757.432 36.4 763.298 39.6C769.298 42.8 773.898 47 777.098 52.2V36.4H811.298V148H777.098V132.2C773.765 137.4 769.098 141.6 763.098 144.8C757.232 148 750.365 149.6 742.498 149.6C733.432 149.6 725.165 147.267 717.698 142.6C710.232 137.8 704.298 131.067 699.898 122.4C695.632 113.6 693.498 103.467 693.498 92ZM777.098 92.2C777.098 83.6667 774.698 76.9333 769.898 72C765.232 67.0667 759.498 64.6 752.698 64.6C745.898 64.6 740.098 67.0667 735.298 72C730.632 76.8 728.298 83.4667 728.298 92C728.298 100.533 730.632 107.333 735.298 112.4C740.098 117.333 745.898 119.8 752.698 119.8C759.498 119.8 765.232 117.333 769.898 112.4C774.698 107.467 777.098 100.733 777.098 92.2ZM898.241 119V148H880.841C868.441 148 858.774 145 851.841 139C844.907 132.867 841.441 122.933 841.441 109.2V64.8H827.841V36.4H841.441V9.2H875.641V36.4H898.041V64.8H875.641V109.6C875.641 112.933 876.441 115.333 878.041 116.8C879.641 118.267 882.307 119 886.041 119H898.241ZM1022.49 90.4C1022.49 93.6 1022.29 96.9333 1021.89 100.4H944.491C945.024 107.333 947.224 112.667 951.091 116.4C955.091 120 959.957 121.8 965.691 121.8C974.224 121.8 980.157 118.2 983.491 111H1019.89C1018.02 118.333 1014.62 124.933 1009.69 130.8C1004.89 136.667 998.824 141.267 991.491 144.6C984.157 147.933 975.957 149.6 966.891 149.6C955.957 149.6 946.224 147.267 937.691 142.6C929.157 137.933 922.491 131.267 917.691 122.6C912.891 113.933 910.491 103.8 910.491 92.2C910.491 80.6 912.824 70.4667 917.491 61.8C922.291 53.1333 928.957 46.4667 937.491 41.8C946.024 37.1333 955.824 34.8 966.891 34.8C977.691 34.8 987.291 37.0667 995.691 41.6C1004.09 46.1333 1010.62 52.6 1015.29 61C1020.09 69.4 1022.49 79.2 1022.49 90.4ZM987.491 81.4C987.491 75.5333 985.491 70.8667 981.491 67.4C977.491 63.9333 972.491 62.2 966.491 62.2C960.757 62.2 955.891 63.8667 951.891 67.2C948.024 70.5333 945.624 75.2667 944.691 81.4H987.491ZM1085.93 149.6C1076.2 149.6 1067.53 147.933 1059.93 144.6C1052.33 141.267 1046.33 136.733 1041.93 131C1037.53 125.133 1035.07 118.6 1034.53 111.4H1068.33C1068.73 115.267 1070.53 118.4 1073.73 120.8C1076.93 123.2 1080.87 124.4 1085.53 124.4C1089.8 124.4 1093.07 123.6 1095.33 122C1097.73 120.267 1098.93 118.067 1098.93 115.4C1098.93 112.2 1097.27 109.867 1093.93 108.4C1090.6 106.8 1085.2 105.067 1077.73 103.2C1069.73 101.333 1063.07 99.4 1057.73 97.4C1052.4 95.2667 1047.8 92 1043.93 87.6C1040.07 83.0667 1038.13 77 1038.13 69.4C1038.13 63 1039.87 57.2 1043.33 52C1046.93 46.6667 1052.13 42.4667 1058.93 39.4C1065.87 36.3333 1074.07 34.8 1083.53 34.8C1097.53 34.8 1108.53 38.2667 1116.53 45.2C1124.67 52.1333 1129.33 61.3333 1130.53 72.8H1098.93C1098.4 68.9333 1096.67 65.8667 1093.73 63.6C1090.93 61.3333 1087.2 60.2 1082.53 60.2C1078.53 60.2 1075.47 61 1073.33 62.6C1071.2 64.0667 1070.13 66.1333 1070.13 68.8C1070.13 72 1071.8 74.4 1075.13 76C1078.6 77.6 1083.93 79.2 1091.13 80.8C1099.4 82.9333 1106.13 85.0667 1111.33 87.2C1116.53 89.2 1121.07 92.5333 1124.93 97.2C1128.93 101.733 1131 107.867 1131.13 115.6C1131.13 122.133 1129.27 128 1125.53 133.2C1121.93 138.267 1116.67 142.267 1109.73 145.2C1102.93 148.133 1095 149.6 1085.93 149.6Z" fill="#264653"/>
</svg>
