<svg id="Capa_1" enable-background="new 0 0 512 512" height="512" viewBox="0 0 512 512" width="512" xmlns="http://www.w3.org/2000/svg"><g><g><path d="m418.994 154.618c0 4.166-3.345 7.512-7.483 7.512-4.139 0-7.512-3.346-7.512-7.512v-49.749c0-4.139 3.373-7.484 7.512-7.484s7.483 3.346 7.483 7.484zm-310.992 0c0 4.166-3.345 7.512-7.484 7.512-4.167 0-7.512-3.346-7.512-7.512v-49.749c0-4.139 3.345-7.484 7.512-7.484 4.139 0 7.484 3.346 7.484 7.484z" fill="#40579a"/></g><g><path clip-rule="evenodd" d="m70.499 220.893v-58.253c0-4.422 3.6-8.021 7.994-8.021h44.022c4.394 0 7.994 3.6 7.994 8.021v58.253c0 4.395-3.6 7.994-7.994 7.994h-44.022c-4.394 0-7.994-3.6-7.994-7.994zm311.02 0v-58.253c0-4.422 3.601-8.021 7.995-8.021h43.994c4.394 0 7.993 3.6 7.993 8.021v58.253c0 4.395-3.6 7.994-7.993 7.994h-43.994c-4.395 0-7.995-3.6-7.995-7.994z" fill="#6a90f5" fill-rule="evenodd"/></g><g><path clip-rule="evenodd" d="m97.513 154.618h25.002c4.394 0 7.994 3.6 7.994 8.021v58.253c0 4.395-3.6 7.994-7.994 7.994h-25.002c4.394 0 7.994-3.6 7.994-7.994v-58.252c0-4.422-3.6-8.022-7.994-8.022zm310.993 0h25.002c4.394 0 7.993 3.6 7.993 8.021v58.253c0 4.395-3.6 7.994-7.993 7.994h-25.002c4.394 0 7.994-3.6 7.994-7.994v-58.252c0-4.422-3.601-8.022-7.994-8.022z" fill="#5370f2" fill-rule="evenodd"/></g><g><path clip-rule="evenodd" d="m130.509 194.133h251.01c71.774 0 130.481 58.734 130.481 130.509s-58.707 130.479-130.481 130.479h-251.01c-71.774 0-130.509-58.705-130.509-130.479s58.735-130.509 130.509-130.509z" fill="#eef5ff" fill-rule="evenodd"/></g><g><path clip-rule="evenodd" d="m356.518 194.133h25.001c71.774 0 130.481 58.734 130.481 130.509s-58.707 130.479-130.481 130.479h-25.001c71.774 0 130.48-58.705 130.48-130.479s-58.706-130.509-130.48-130.509z" fill="#dfe9fb" fill-rule="evenodd"/></g><g><path clip-rule="evenodd" d="m7.994 104.869h496.012c4.394 0 7.994-3.601 7.994-7.994v-32.003c0-4.394-3.601-7.993-7.994-7.993h-496.012c-4.394 0-7.994 3.6-7.994 7.993v32.003c0 4.394 3.6 7.994 7.994 7.994z" fill="#d2a677" fill-rule="evenodd"/></g><g><path clip-rule="evenodd" d="m479.005 104.869h25.001c4.394 0 7.994-3.601 7.994-7.994v-32.003c0-4.394-3.601-7.993-7.994-7.993h-25.001c4.393 0 7.993 3.6 7.993 7.993v32.003c0 4.394-3.6 7.994-7.993 7.994z" fill="#c19870" fill-rule="evenodd"/></g><g><path d="m181.816 273.447c0-4.139 3.345-7.483 7.483-7.483 4.139 0 7.512 3.345 7.512 7.483v96.492c10.063-.028 28.771-.113 28.857-.113 4.11-.028 7.483 3.288 7.483 7.427.029 4.139-3.316 7.483-7.426 7.513l-35.717-.029c-4.422.113-8.192-3.033-8.192-7.455zm82.461 0c0-4.139 3.345-7.483 7.483-7.483 4.139 0 7.512 3.345 7.512 7.483v71.518c0 4.593 1.105 8.362 3.118 11.566 2.183 3.43 5.499 6.377 9.694 9.07 4.507 2.892 9.78 4.28 15.138 4.309 4.791 0 9.496-.992 13.806-3.147 5.102-2.58 9.212-5.754 11.849-9.609 2.296-3.373 3.6-7.427 3.6-12.273v-71.435c0-4.139 3.345-7.483 7.483-7.483 4.139 0 7.512 3.345 7.512 7.483v71.435c0 8.021-2.239 14.881-6.236 20.692-4.167 6.095-10.176 10.857-17.489 14.542-6.435 3.261-13.323 4.733-20.523 4.733-8.391-.027-16.073-2.125-23.16-6.661-6.065-3.855-10.913-8.277-14.315-13.635-3.571-5.584-5.471-11.99-5.471-19.588v-71.517zm-120.53 2.664c3.43 2.324 4.337 6.974 2.013 10.403-2.324 3.431-6.973 4.337-10.403 2.041-3.657-2.466-7.625-4.422-11.82-5.697-4.054-1.22-8.447-1.899-13.039-1.899-12.274 0-23.386 4.989-31.437 13.011-8.05 8.052-13.011 19.164-13.011 31.438 0 12.273 4.961 23.386 13.011 31.437 8.05 8.05 19.162 13.039 31.437 13.039 5.556 0 10.715-1.021 15.335-3.09 4.365-1.956 8.306-4.903 11.65-8.9 2.665-3.175 7.37-3.572 10.545-.936 3.175 2.664 3.6 7.37.936 10.545-4.819 5.754-10.602 10.062-17.065 12.954-6.605 2.978-13.833 4.423-21.402 4.423-16.413 0-31.267-6.662-42.038-17.434-10.772-10.743-17.405-25.626-17.405-42.038s6.633-31.267 17.405-42.039c10.771-10.743 25.625-17.404 42.038-17.404 5.981 0 11.821.907 17.376 2.607 5.754 1.757 11.083 4.308 15.874 7.539zm317.229 73.163c0 9.809-3.969 18.652-10.403 25.087-6.406 6.406-15.279 10.375-25.059 10.375l-35.461.029c-3.969 0-7.513-3.487-7.513-7.626 0-34.583 0-69.137 0-103.692 0-4.139 3.374-7.483 7.513-7.483h30.189c8.674 0 16.526 3.515 22.195 9.185 5.698 5.697 9.213 13.549 9.213 22.223 0 8.193-3.147 15.648-8.306 21.261 2.664 1.531 5.074 3.402 7.228 5.557 6.435 6.433 10.404 15.305 10.404 25.084zm-63.44-35.46c7.568 0 15.137-.028 22.705-.028 4.507 0 8.617-1.843 11.594-4.819 2.977-2.947 4.819-7.058 4.819-11.595 0-4.535-1.843-8.646-4.819-11.594-2.977-2.976-7.087-4.818-11.594-4.818h-22.705zm42.435 49.946c3.713-3.713 6.01-8.815 6.01-14.485 0-5.641-2.297-10.772-6.01-14.484-3.686-3.686-8.816-5.981-14.457-5.981l-27.978.028v40.904h27.978c5.64-.001 10.771-2.297 14.457-5.982z" fill="#a9c6f9"/></g></g></svg>