<svg width="704" height="472" viewBox="0 0 704 472" fill="none" xmlns="http://www.w3.org/2000/svg">
<path d="M30.0621 378.306C30.0621 378.306 -49.9645 432.411 52.5158 437.343C154.996 442.274 92.1356 489.814 237.728 464.396C383.32 438.977 521.83 489.279 521.904 436.526C521.904 436.526 612.85 469.384 618.211 428.325C618.211 428.325 688.769 447.037 662.43 415.137C636.09 383.237 138.396 286.664 89.6025 321.41C40.8094 356.156 11.8139 357.283 30.0621 378.306Z" fill="#8CB7EA"/>
<path d="M701.234 327.403C692.15 379.561 660.982 415.633 660.982 415.633L224.955 415.784L105.45 415.814L21.4374 415.844C12.9246 398.579 8.81781 384.217 7.75711 371.76C7.48514 368.706 7.40355 365.773 7.48514 362.931C7.48514 362.84 7.48514 362.78 7.48514 362.689C7.67552 357.005 8.49144 351.713 9.76972 346.694C11.32 340.707 13.5501 335.114 16.1339 329.671C16.7322 328.431 17.3578 327.192 17.9833 325.952C21.6821 318.816 25.9521 311.892 30.0861 304.726C34.3561 297.349 38.4901 289.669 41.7537 281.172C43.2496 277.241 44.5822 273.129 45.6157 268.806C46.9756 263.212 47.8731 257.255 48.1723 250.785C48.2811 248.457 48.3083 246.038 48.2539 243.558C48.2539 243.044 48.2267 242.5 48.1995 241.986C47.9819 235.576 47.166 228.682 45.6429 221.244C45.4254 220.216 45.2078 219.158 44.963 218.099C44.7998 217.374 44.6366 216.618 44.4463 215.862C43.168 210.48 42.1073 205.219 41.237 200.018C40.7746 197.176 40.3667 194.334 40.0131 191.522C39.7683 189.587 39.5779 187.652 39.3876 185.716C22.5796 5.23639 266.267 -60.4064 339.211 64.7715C395.591 161.527 461.816 175.92 484.798 159.502C538.73 120.92 612.271 114.419 675.315 209.482C703.627 251.964 707.19 293.146 701.234 327.403Z" fill="#FFEDC5"/>
<path opacity="0.5" d="M281.661 414.907L105.178 415.723L21.1653 415.542C12.6797 398.247 8.62735 383.885 7.59386 371.427C7.34908 368.373 7.26749 365.441 7.34908 362.598C7.34908 362.508 7.34908 362.447 7.34908 362.356L16.0794 329.369C16.6777 328.129 17.3033 326.889 17.956 325.65C21.6821 318.514 25.952 311.62 30.1132 304.454C34.3832 297.076 38.5444 289.427 41.808 280.93C43.3311 277 44.6366 272.918 45.6973 268.564C47.0571 262.97 47.9818 257.013 48.3082 250.543C48.417 248.215 48.4714 245.796 48.417 243.347C48.417 242.833 48.3898 242.288 48.3626 241.774C52.9317 234.185 57.936 226.293 62.75 219.49C70.1476 209.059 77.0829 201.258 81.2985 201.288C87.9618 201.349 93.9181 219.037 99.8199 234.427C105.151 248.275 110.454 260.218 116.247 255.834C124.134 249.847 137.189 208.363 150.543 180.092C157.94 164.46 165.42 152.88 172.192 153.606C177.169 154.15 182.364 160.711 187.722 170.296C202.68 197.146 218.754 247.761 234.528 256.137C255.96 267.505 281.661 414.907 281.661 414.907Z" fill="#C2D9FF"/>
<path d="M701.234 327.403C697.616 348.266 690.436 366.559 683.147 380.982C672.214 402.631 660.982 415.633 660.982 415.633L584.693 415.663L21.4373 415.844C12.9246 398.579 8.81781 384.217 7.75711 371.76C7.48514 368.706 7.40355 365.773 7.48514 362.931C7.64832 357.156 8.46425 351.774 9.79691 346.694C11.7007 339.317 14.638 332.544 18.0377 325.952C31.7995 325.982 57.2834 328.129 83.6647 341.04C122.802 360.18 168.112 389.751 264.363 369.795C360.615 349.808 436.114 322.414 481.942 345.515C527.769 368.585 576.752 370.55 608.844 347.964C635.498 329.218 675.342 316.73 701.234 327.403Z" fill="#AECBF4"/>
<path d="M295.776 170.357C295.776 167.061 293.383 164.4 290.418 164.4C287.454 164.4 285.061 167.061 285.061 170.357C285.061 173.652 287.454 176.313 290.418 176.313C293.383 176.313 295.776 173.652 295.776 170.357Z" fill="#415DA5"/>
<path d="M299.399 141.654L290.303 169.828L290.994 170.104L300.09 141.93L299.399 141.654Z" fill="#415DA5"/>
<path d="M316.093 183.056L316.365 182.3L290.636 170.024L273.747 143.174L273.148 143.628L290.174 170.689L290.255 170.72L316.093 183.056Z" fill="#415DA5"/>
<path d="M300.617 201.409L301.297 201.167C301.107 200.563 291.18 171.475 290.745 170.236L290.5 169.48L274.481 197.66L275.106 198.083L290.364 171.264C293.981 181.907 300.481 200.956 300.617 201.409Z" fill="#415DA5"/>
<path d="M318.883 162.45L290.338 167.908L290.462 168.713L319.008 163.255L318.883 162.45Z" fill="#415DA5"/>
<path d="M280.589 140.116L279.892 140.373L288.271 168.249L288.968 167.991L280.589 140.116Z" fill="#415DA5"/>
<path d="M290.473 170.78L290.582 170.719L316.745 155.964L316.419 155.238L290.364 169.933L262.296 164.702L262.16 165.488L290.473 170.78Z" fill="#415DA5"/>
<path d="M279.839 200.411C280.002 199.897 286.72 181.514 290.473 171.233L304.996 196.662L305.622 196.239L290.337 169.51L290.065 170.235C289.63 171.445 279.322 199.565 279.159 200.169L279.839 200.411Z" fill="#415DA5"/>
<path d="M290.463 169.982L290.355 170.79L318.547 175.448L318.655 174.64L290.463 169.982Z" fill="#415DA5"/>
<path d="M307.226 145.652L291.584 165.67L292.139 166.205L307.781 146.187L307.226 145.652Z" fill="#415DA5"/>
<path d="M289.874 172.553L289.142 172.62L291.344 201.938L292.076 201.871L289.874 172.553Z" fill="#415DA5"/>
<path d="M291.491 168.435L266.57 187.645L266.988 188.315L291.909 169.105L291.491 168.435Z" fill="#415DA5"/>
<path d="M311.061 192.066L311.578 191.492L290.772 168.18V137.823H290.038V168.512L311.061 192.066Z" fill="#415DA5"/>
<path d="M274.508 200.532C269.857 197.479 265.941 193.125 263.221 187.924C260.447 182.602 258.978 176.525 258.978 170.357C258.978 151.066 273.094 135.373 290.446 135.373C307.797 135.373 321.913 151.066 321.913 170.357C321.913 189.647 307.797 205.34 290.446 205.34C284.816 205.34 279.295 203.677 274.508 200.532ZM263.33 170.357C263.33 175.678 264.608 180.909 267.002 185.475C269.341 189.95 272.713 193.699 276.738 196.33C280.872 199.021 285.605 200.472 290.446 200.472C305.377 200.472 317.534 186.956 317.534 170.357C317.534 153.757 305.377 140.241 290.446 140.241C275.514 140.241 263.33 153.757 263.33 170.357Z" fill="#2C3A64"/>
<path d="M366.533 110.357L348.048 174.638L351.157 175.743L369.641 111.462L366.533 110.357Z" fill="#739CF3"/>
<path d="M352.727 175.95L396.352 171.717L315.44 110.912L320.063 121.434L386.887 168.996L352.455 172.322L352.727 175.95Z" fill="#739CF3"/>
<path d="M346.853 173.108L349.6 171.113L316.038 111.335L312.122 115.841L346.853 173.108Z" fill="#739CF3"/>
<path d="M293.002 168.754L311.687 124.276L309.185 123.158C307.553 122.432 305.703 123.309 305.051 125.123L289.956 167.363L293.002 168.754Z" fill="#415DA5"/>
<path d="M311.714 124.277C314.407 116.476 318.948 104.2 318.867 104.321L316.147 102.295C316.011 102.507 315.93 102.658 308.831 123.128L311.714 124.277Z" fill="#415DA5"/>
<path d="M327.407 108.584C328.468 106.921 328.141 104.623 326.645 103.444C325.149 102.265 323.082 102.628 322.022 104.29C320.961 105.953 321.287 108.251 322.783 109.431C324.252 110.61 326.346 110.247 327.407 108.584Z" fill="#415DA5"/>
<path d="M314.842 98.9084C315.902 97.2454 315.576 94.9474 314.08 93.7681C312.584 92.5889 310.517 92.9517 309.457 94.6148C308.396 96.2778 308.722 98.5758 310.218 99.755C311.687 100.964 313.781 100.571 314.842 98.9084Z" fill="#415DA5"/>
<path d="M311.605 100.239L324.279 109.189L326.047 105.349L313.373 96.3687L311.605 100.239Z" fill="#415DA5"/>
<path d="M332.465 184.507H339.564C340.407 184.507 341.087 183.751 341.087 182.814C341.087 181.877 340.407 181.121 339.564 181.121H332.465C331.622 181.121 330.942 181.877 330.942 182.814C330.942 183.751 331.65 184.507 332.465 184.507Z" fill="#415DA5"/>
<path d="M349.787 173.889L335.432 181.162L335.963 182.455L350.317 175.182L349.787 173.889Z" fill="#415DA5"/>
<path d="M396.978 170.357C396.978 167.061 394.584 164.4 391.62 164.4C388.655 164.4 386.262 167.061 386.262 170.357C386.262 173.652 388.655 176.313 391.62 176.313C394.584 176.313 396.978 173.652 396.978 170.357Z" fill="#415DA5"/>
<path d="M400.609 141.668L391.514 169.841L392.205 170.117L401.3 141.943L400.609 141.668Z" fill="#415DA5"/>
<path d="M417.294 183.056L417.593 182.3L391.864 170.024L374.948 143.174L374.349 143.628L391.375 170.689L391.484 170.72L417.294 183.056Z" fill="#415DA5"/>
<path d="M401.819 201.409L402.498 201.167C402.308 200.563 392.381 171.475 391.946 170.236L391.701 169.48L375.682 197.66L376.307 198.083L391.565 171.264C395.182 181.907 401.683 200.956 401.819 201.409Z" fill="#415DA5"/>
<path d="M420.081 162.451L391.536 167.909L391.66 168.713L420.206 163.255L420.081 162.451Z" fill="#415DA5"/>
<path d="M381.791 140.128L381.095 140.386L389.474 168.261L390.17 168.004L381.791 140.128Z" fill="#415DA5"/>
<path d="M391.674 170.78L391.783 170.719L417.974 155.964L417.647 155.238L391.565 169.933L363.498 164.702L363.389 165.488L391.674 170.78Z" fill="#415DA5"/>
<path d="M381.067 200.411C381.23 199.897 387.948 181.514 391.701 171.233L406.225 196.662L406.85 196.239L391.565 169.51L391.293 170.235C390.858 171.445 380.55 199.565 380.387 200.169L381.067 200.411Z" fill="#415DA5"/>
<path d="M391.674 169.918L391.566 170.725L419.761 175.377L419.869 174.57L391.674 169.918Z" fill="#415DA5"/>
<path d="M408.449 145.643L392.807 165.66L393.361 166.196L409.004 146.178L408.449 145.643Z" fill="#415DA5"/>
<path d="M391.076 172.554L390.344 172.621L392.547 201.939L393.279 201.872L391.076 172.554Z" fill="#415DA5"/>
<path d="M392.72 168.43L367.799 187.64L368.218 188.311L393.139 169.101L392.72 168.43Z" fill="#415DA5"/>
<path d="M412.262 192.066L412.779 191.492L391.973 168.18V137.823H391.266V168.512L412.262 192.066Z" fill="#415DA5"/>
<path d="M375.709 200.532C371.058 197.479 367.142 193.125 364.422 187.924C361.648 182.602 360.179 176.525 360.179 170.357C360.179 151.066 374.295 135.373 391.647 135.373C408.999 135.373 423.114 151.066 423.114 170.357C423.114 189.647 408.999 205.34 391.647 205.34C386.017 205.34 380.523 203.677 375.709 200.532ZM364.531 170.357C364.531 175.678 365.809 180.909 368.203 185.475C370.542 189.95 373.914 193.699 377.939 196.33C382.073 199.021 386.806 200.472 391.647 200.472C406.578 200.472 418.735 186.956 418.735 170.357C418.735 153.757 406.578 140.241 391.647 140.241C376.715 140.241 364.531 153.757 364.531 170.357Z" fill="#2C3A64"/>
<path d="M366 134.466C366.462 134.647 366.979 134.587 367.387 134.315C382.1 124.428 402.471 128.147 408.346 129.507C408.672 129.598 408.971 129.296 408.971 128.933V127.663C408.971 126.695 408.319 125.849 407.448 125.698C404.266 125.184 396.814 124.035 392.653 124.004C392.544 124.004 392.435 124.004 392.327 124.004C382.998 124.004 374.975 125.849 368.366 129.507C367.006 130.263 365.456 130.354 364.041 129.81L362.219 129.114C361.186 128.721 360.043 129.326 359.69 130.475C359.445 131.231 359.799 132.047 360.479 132.289L366 134.466Z" fill="#D57912"/>
<path d="M379.68 109.552C379.68 109.552 380.278 106.558 378.592 106.377C376.906 106.165 370.786 107.647 369.127 107.435C367.468 107.223 358.956 105.681 357.433 107.284C355.937 108.886 356.562 110.307 359.581 110.61C362.573 110.912 366.571 111.456 367.713 112.545C368.855 113.603 377.069 116.748 379.68 109.552Z" fill="#415DA5"/>
<path d="M357.813 175.194C357.813 170.175 354.142 166.093 349.627 166.093C345.112 166.093 341.441 170.175 341.441 175.194C341.441 180.214 345.112 184.296 349.627 184.296C354.142 184.296 357.813 180.244 357.813 175.194Z" fill="#2C3A64"/>
<path d="M529.292 205.34H527.66V201.137C527.66 195.513 523.526 190.917 518.468 190.917H282.586C277.527 190.917 273.393 195.513 273.393 201.137V203.828H271.761V201.137C271.761 194.485 276.629 189.103 282.586 189.103H518.468C524.451 189.103 529.292 194.515 529.292 201.137V205.34Z" fill="#2C3A64"/>
<path d="M302.375 203.829H357.014V153.757H302.375V203.829Z" fill="#D3671E"/>
<path d="M329.695 203.829H384.335V153.757H329.695V203.829Z" fill="#F1A34F"/>
<path d="M302.412 191.129H311.061L310.3 188.408L311.061 186.472H302.412V191.129Z" fill="#F1A34F"/>
<path d="M358.602 153.727H355.012V204.009H358.602V153.727Z" fill="#E58628"/>
<path d="M329.61 176.615H302.385V180.576H329.61V176.615Z" fill="#C15911"/>
<path d="M384.711 176.615H329.691V180.576H384.711V176.615Z" fill="#E58628"/>
<path d="M350.225 126H319.846V153.848H350.225V126Z" fill="#D3671E"/>
<path d="M365.429 126H335.049V153.848H365.429V126Z" fill="#F1A34F"/>
<path d="M319.873 146.772H324.687L324.252 145.291L324.687 144.202H319.873V146.772Z" fill="#F1A34F"/>
<path d="M351.096 126H349.11V153.969H351.096V126Z" fill="#E58628"/>
<path d="M334.995 138.729H319.846V140.937H334.995V138.729Z" fill="#C15911"/>
<path d="M365.646 138.729H335.049V140.937H365.646V138.729Z" fill="#E58628"/>
<path d="M373.588 203.375L370.161 204.221L359.119 153.848L358.874 152.759L351.667 140.906L351.123 140.03L350.307 138.729L350.252 138.609L349.11 136.764L342.556 126H346.771L349.11 129.84L350.252 131.684L351.123 133.136L354.522 138.729L355.855 140.906L362.165 151.247L362.246 151.58L362.736 153.848L373.588 203.375Z" fill="#2C3A64"/>
<path d="M524.777 200.139C523.554 200.321 522.33 200.502 521.106 200.683C517.026 201.258 512.865 201.742 508.649 202.074C507.371 202.195 506.12 202.286 504.842 202.346C498.777 202.74 492.63 202.891 486.456 202.679C479.956 202.467 473.592 202.074 467.473 201.5C466.086 201.379 464.699 201.228 463.312 201.077C422.271 196.602 392.109 184.174 392.463 170.477C392.735 160.106 410.467 151.519 437.012 147.135C438.208 146.923 439.432 146.742 440.656 146.561H440.683C451.454 144.988 463.529 144.081 476.393 144.021C477.699 144.021 479.032 144.021 480.337 144.021C482.839 144.051 485.369 144.081 487.925 144.172C489.856 144.232 491.787 144.323 493.691 144.444C495.051 144.535 496.438 144.625 497.798 144.746C546.127 149.04 588.256 172.473 589.289 176.585C590.404 180.969 561.412 194.394 524.777 200.139Z" fill="#ABDDDA"/>
<path d="M589.289 176.616L512.158 174.227L508.16 174.106L494.806 173.683L490.808 173.562L453.276 172.383L449.278 172.262L392.49 170.508C392.762 160.137 410.494 151.55 437.039 147.166C438.236 146.954 439.46 146.773 440.683 146.591H440.711C451.481 145.019 463.556 144.112 476.421 144.052C477.726 144.052 479.059 144.052 480.364 144.052C482.866 144.082 485.396 144.112 487.952 144.203C489.883 144.263 491.814 144.354 493.718 144.475C495.078 144.566 496.465 144.656 497.825 144.777C546.127 149.071 588.256 172.504 589.289 176.616Z" fill="#91CECF"/>
<path d="M437.012 147.165L449.251 172.261L449.876 173.562L463.312 201.107L463.91 202.347L465.787 206.187L468.86 204.372L467.745 202.074L467.473 201.53L453.874 173.683L453.249 172.382L440.683 146.591L437.012 147.165Z" fill="#2C3A64"/>
<path d="M526.872 204.373L523.798 206.156L521.922 202.347L521.106 200.653L508.133 174.076L507.861 173.532L493.664 144.444C495.024 144.535 496.411 144.626 497.771 144.747L511.859 173.653L512.131 174.197L524.777 200.109L525.729 202.044L526.872 204.373Z" fill="#2C3A64"/>
<path opacity="0.7" d="M171.947 113.512C171.947 113.512 177.604 105.046 191.094 105.983C191.094 105.983 210.703 91.8934 231.591 104.109C231.591 104.109 253.811 101.085 270.265 106.739C281.226 110.519 284.87 114.45 284.87 114.45L171.947 113.512Z" fill="#F8FCFF"/>
<path opacity="0.7" d="M89.1041 75.6565C89.1041 75.6565 97.1545 64.5901 116.356 65.7996C116.356 65.7996 144.26 47.3253 174.014 63.3504C174.014 63.3504 205.645 59.3895 229.061 66.7974C244.673 71.7259 249.84 76.8962 249.84 76.8962L89.1041 75.6565Z" fill="#F8FCFF"/>
<path d="M224.955 46.9323C229.266 46.9323 232.76 43.0471 232.76 38.2545C232.76 33.4618 229.266 29.5767 224.955 29.5767C220.644 29.5767 217.149 33.4618 217.149 38.2545C217.149 43.0471 220.644 46.9323 224.955 46.9323Z" fill="#F8FBFF"/>
<path d="M224.955 415.844H21.4374C12.9246 398.579 8.81781 384.217 7.75711 371.76C7.48514 368.706 7.40355 365.773 7.48514 362.931C7.64832 357.156 8.46425 351.774 9.79691 346.694C11.7007 339.316 14.638 332.544 18.0377 325.952C21.7365 318.816 26.0065 311.892 30.1405 304.726C30.1405 304.726 53.6389 288.429 85.7046 298.165C117.797 307.901 103.6 330.79 109.937 341.04C116.274 351.26 126.392 345.273 141.595 352.499C156.798 359.726 153.426 393.076 159.328 394.921C165.229 396.765 223.704 396.826 224.927 415.754C224.955 415.784 224.955 415.814 224.955 415.844Z" fill="#A8D29F"/>
<path d="M207.222 286.222V301.4C207.222 302.761 207.521 304.061 208.038 305.21C209.289 307.992 211.9 309.927 214.892 309.927H217.339C221.528 309.927 224.982 306.117 224.982 301.431V286.252C224.982 284.649 224.574 283.168 223.867 281.898C223.867 281.868 223.867 281.868 223.867 281.868C222.507 279.388 220.086 277.756 217.339 277.756H214.892C210.649 277.725 207.222 281.565 207.222 286.222Z" fill="#2B478B"/>
<path opacity="0.3" d="M208.011 305.21C209.262 307.992 211.873 309.927 214.864 309.927H217.312C221.501 309.927 224.955 306.117 224.955 301.43V286.252C224.955 284.649 224.547 283.168 223.839 281.898C223.703 282.805 220.467 303.638 208.011 305.21Z" fill="#2B478B"/>
<path d="M328.495 397.34H290.69V354.918H330.127L328.495 397.34Z" fill="#0C2544"/>
<path d="M213.994 300.947L395.046 312.739V203.828H273.039C261.399 203.828 250.765 211.055 245.461 222.575L237.465 239.9L213.994 300.947Z" fill="#FBB667"/>
<path d="M314.814 390.446C314.814 401.966 309.457 414.665 309.457 414.665C309.457 414.665 301.515 414.665 300.4 414.665C292.458 414.665 286.013 403.81 286.013 390.446C286.013 377.082 301.515 366.227 309.457 366.227C317.398 366.227 314.814 377.051 314.814 390.446Z" fill="#163560"/>
<path d="M309.457 414.665C317.402 414.665 323.844 403.822 323.844 390.446C323.844 377.07 317.402 366.227 309.457 366.227C301.511 366.227 295.069 377.07 295.069 390.446C295.069 403.822 301.511 414.665 309.457 414.665Z" fill="#2B478B"/>
<path d="M316.555 390.446C316.555 397.219 313.291 402.722 309.266 402.722C305.241 402.722 301.977 397.219 301.977 390.446C301.977 383.673 305.241 378.17 309.266 378.17C313.291 378.17 316.555 383.673 316.555 390.446Z" fill="#DFEBFD"/>
<path d="M210.785 390.446C210.785 401.966 205.427 414.665 205.427 414.665C205.427 414.665 197.485 414.665 196.37 414.665C188.429 414.665 181.983 403.81 181.983 390.446C181.983 377.082 197.485 366.227 205.427 366.227C213.368 366.227 210.785 377.051 210.785 390.446Z" fill="#163560"/>
<path d="M205.427 414.665C213.373 414.665 219.814 403.822 219.814 390.446C219.814 377.07 213.373 366.227 205.427 366.227C197.481 366.227 191.04 377.07 191.04 390.446C191.04 403.822 197.481 414.665 205.427 414.665Z" fill="#163560"/>
<path d="M449.659 390.446C449.659 401.966 444.301 414.665 444.301 414.665C444.301 414.665 436.359 414.665 435.244 414.665C427.302 414.665 420.857 403.81 420.857 390.446C420.857 377.082 436.359 366.227 444.301 366.227C452.269 366.227 449.659 377.051 449.659 390.446Z" fill="#163560"/>
<path d="M458.715 390.446C458.715 403.81 452.27 414.665 444.328 414.665C436.386 414.665 429.941 403.81 429.941 390.446C429.941 377.082 436.386 366.227 444.328 366.227C452.27 366.227 458.715 377.051 458.715 390.446Z" fill="#163560"/>
<path d="M167.65 376.538C167.623 386.667 175.02 394.861 184.104 394.861H290.69C290.391 392.865 290.228 390.809 290.228 388.693C290.228 373.03 298.686 360.331 309.076 360.331C319.492 360.331 327.951 373.03 327.951 388.693C327.951 390.809 328.114 392.684 327.815 394.649L389.77 394.861C389.77 394.861 392.272 363.959 391.973 348.448C391.728 334.963 391.728 308.536 392.435 302.066C392.435 301.098 332.384 300.977 317.235 300.917C315.168 300.886 313.944 300.886 313.808 300.886L313.591 301.038L313.373 301.219C310.572 303.396 294.906 315.612 285.169 322.747C276.602 329.036 213.287 331.606 188.456 332.362C182.282 332.544 178.474 332.604 178.474 332.604C178.474 332.604 175.075 336.475 172.083 342.582C169.771 347.329 167.731 353.407 167.677 360.059C167.65 364.201 167.623 369.19 167.623 374.088C167.65 374.935 167.65 375.751 167.65 376.538Z" fill="#FBB667"/>
<path d="M224.247 303.396L307.199 301.4C309.13 301.4 310.272 301.31 311.061 299.375L332.873 249.062C333.553 247.399 332.438 245.494 330.806 245.494H242.714C240.783 245.494 239.016 246.764 238.227 248.759L223.431 286.373L219.733 295.777C218.346 299.375 220.685 303.396 224.247 303.396Z" fill="#DCEAFF"/>
<path d="M556.517 203.828H375.954V397.37H556.517V203.828Z" fill="#E89F56"/>
<path d="M263.14 376.598C263.167 378.201 263.221 379.712 263.303 381.043C263.901 389.932 271.952 397.31 271.952 397.31H290.718C290.418 395.314 290.255 393.258 290.255 391.142C290.255 385.82 291.234 380.831 292.921 376.568C296.239 368.283 302.249 362.75 309.103 362.75C315.984 362.75 321.995 368.283 325.313 376.568C326.999 380.831 327.978 385.79 327.978 391.142C327.978 393.258 327.842 395.314 327.516 397.31H395.074V203.828H340.842V242.228C340.842 242.228 324.578 284.71 317.262 303.426C315.44 308.083 314.189 311.257 313.835 311.953C312.204 315.4 274.399 336.656 268.171 342.945C264.663 346.392 262.949 364.473 263.14 376.598Z" fill="#E89F56"/>
<path d="M340.217 254.716L323.3 301.038C322.892 302.187 323.626 303.427 324.741 303.427H352.945C352.945 303.427 359.2 302.247 360.016 288.036C360.887 272.858 360.859 246.643 360.859 246.643L347.451 246.583C342.365 247.399 341.577 250.543 340.217 254.716Z" fill="#AEC3FF"/>
<path d="M352.591 304.666H326.129C324.932 304.666 323.79 304.001 323.11 302.882C322.43 301.763 322.294 300.372 322.756 299.102L339.129 254.232L339.292 253.748C340.57 249.757 341.685 246.31 347.043 245.312C347.234 245.282 347.451 245.252 347.669 245.252L358.357 245.312C360.343 245.312 361.975 247.126 361.975 249.364C361.947 256.953 361.811 275.941 361.131 288.066C360.452 300.251 355.828 303.517 353.897 304.364C353.489 304.575 353.054 304.666 352.591 304.666ZM347.669 247.822C347.587 247.822 347.506 247.822 347.451 247.852C343.399 248.608 342.664 250.876 341.441 254.655L341.25 255.199L324.85 300.07C324.687 300.554 324.714 301.068 324.986 301.491C325.258 301.914 325.666 302.156 326.129 302.156H352.591C352.755 302.156 352.918 302.126 353.081 302.066C354.278 301.552 358.276 299.012 358.874 287.945C359.554 275.881 359.69 256.983 359.717 249.394C359.717 248.547 359.119 247.882 358.357 247.852L347.669 247.822Z" fill="#163560"/>
<path d="M178.529 332.695H277.473L313.618 301.098L313.835 300.947H213.994L185.573 326.345L178.529 332.695Z" fill="#FBB667"/>
<path d="M170.886 344.971C171.457 346.029 171.457 346.12 172.273 346.271L186.144 349.143C187.314 349.385 188.211 347.118 187.912 344.789L186.552 334.418L186.498 334.176L186.226 332.06C185.981 330.246 185.247 328.825 184.376 328.462L183.56 328.129L177.794 333.3C176.924 334.086 176.163 335.023 175.564 336.112C174.558 337.896 172.79 341.101 170.886 344.971Z" fill="#F9DDBF"/>
<path d="M556.517 203.828H338.694V239.9H556.517V203.828Z" fill="#FBB667"/>
<path d="M264.663 353.709L273.611 352.711C276.738 352.379 279.268 349.748 279.812 346.331L281.879 333.753C281.933 333.542 281.933 333.36 281.933 333.148C275.569 337.23 270.184 340.859 268.144 342.884C266.675 344.427 265.479 348.539 264.663 353.709Z" fill="#ED9740"/>
<path d="M247.692 355.584L264.663 353.709H264.69L273.638 352.711C276.765 352.379 279.295 349.748 279.839 346.332L281.906 333.753C281.96 333.542 281.96 333.36 281.96 333.149V333.118C282.069 330.457 279.893 328.311 277.445 328.855L251.01 334.812C249.323 335.205 247.991 336.595 247.528 338.41L244.428 351.169C243.802 353.588 245.516 355.856 247.692 355.584Z" fill="#F9DDBF"/>
<path d="M237.465 239.9H340.57C340.57 239.9 340.978 232.553 343.562 224.177C345.874 216.769 349.845 208.515 356.807 203.828H272.55C258.815 203.828 246.658 211.992 241.817 224.177C241.599 224.691 241.382 225.175 241.219 225.689C239.777 229.922 238.472 234.669 237.465 239.9Z" fill="#FBB667"/>
<path d="M264.635 353.709L273.611 352.711C276.738 352.379 279.268 349.748 279.812 346.331L281.879 333.753C281.933 333.542 281.933 333.33 281.933 333.148C275.569 337.23 270.184 340.889 268.144 342.915C266.675 344.427 265.479 348.539 264.635 353.709Z" fill="#E5BD98"/>
<path d="M167.65 379.017C167.623 389.146 175.374 397.34 184.893 397.34H290.69C290.391 395.345 290.228 393.289 290.228 391.172C290.228 385.85 291.207 380.861 292.893 376.598H167.677C167.65 377.415 167.65 378.201 167.65 379.017Z" fill="#E89F56"/>
<path d="M237.329 336.051H196.86C195.554 336.051 194.575 337.986 194.766 340.133L196.207 355.765C196.425 358.063 197.594 359.756 198.981 359.756H232.325C234.474 359.756 236.35 357.398 236.976 353.951L239.369 340.647C239.804 338.379 238.771 336.051 237.329 336.051Z" fill="#E89F56"/>
<path d="M331.486 278.391C331.486 278.391 329.936 298.074 338.694 303.456H325.693C324.116 303.456 323.028 301.672 323.626 300.04L331.486 278.391Z" fill="#163560"/>
<path d="M329.093 291.574C329.093 291.574 332.792 288.671 333.091 286.252V300.01H328.277L329.093 291.574Z" fill="#163560"/>
<path d="M333.091 286.222V301.4C333.091 302.761 333.39 304.061 333.907 305.21C335.158 307.992 337.769 309.927 340.761 309.927H343.208C347.397 309.927 350.851 306.117 350.851 301.431V286.252C350.851 284.649 350.443 283.168 349.736 281.898C349.736 281.868 349.736 281.868 349.736 281.868C348.376 279.388 345.955 277.756 343.208 277.756H340.761C336.518 277.725 333.091 281.565 333.091 286.222Z" fill="#2B478B"/>
<path d="M333.907 305.21C335.158 307.992 337.769 309.927 340.761 309.927H343.208C347.397 309.927 350.851 306.117 350.851 301.43V286.252C350.851 284.649 350.443 283.168 349.736 281.898C349.6 282.805 346.336 303.638 333.907 305.21Z" fill="#163560"/>
<path d="M497.553 397.37H541.966C542.918 392.926 545.719 361.177 520.834 361.177C498.206 361.177 496.547 390.114 497.553 397.37Z" fill="#0C2544"/>
<path d="M528.069 390.446C528.069 401.966 522.711 414.665 522.711 414.665C522.711 414.665 514.769 414.665 513.654 414.665C505.712 414.665 499.266 403.81 499.266 390.446C499.266 377.082 514.769 366.227 522.711 366.227C530.652 366.227 528.069 377.051 528.069 390.446Z" fill="#163560"/>
<path d="M522.711 414.665C530.656 414.665 537.098 403.822 537.098 390.446C537.098 377.07 530.656 366.227 522.711 366.227C514.765 366.227 508.323 377.07 508.323 390.446C508.323 403.822 514.765 414.665 522.711 414.665Z" fill="#2B478B"/>
<path d="M530.299 390.446C530.299 396.614 527.334 401.634 523.662 401.634C519.991 401.634 517.026 396.614 517.026 390.446C517.026 384.278 519.991 379.259 523.662 379.259C527.334 379.259 530.299 384.278 530.299 390.446Z" fill="#DFEBFD"/>
<path d="M237.465 239.9H342.882C342.882 239.9 340.978 232.553 343.562 224.177H241.817C241.599 224.691 241.382 225.175 241.219 225.689C239.777 229.922 238.472 234.669 237.465 239.9Z" fill="#E89F56"/>
<path d="M431.219 303.396H382.019C379.653 303.396 377.749 301.279 377.749 298.649V251.299C377.749 248.669 379.653 246.552 382.019 246.552H431.219C433.585 246.552 435.489 248.669 435.489 251.299V298.649C435.489 301.279 433.558 303.396 431.219 303.396Z" fill="#AEC3FF"/>
<path d="M504.08 303.396H453.847C451.78 303.396 450.094 301.521 450.094 299.223V250.725C450.094 248.427 451.78 246.552 453.847 246.552H504.08C506.147 246.552 507.834 248.427 507.834 250.725V299.223C507.834 301.521 506.147 303.396 504.08 303.396Z" fill="#AEC3FF"/>
<path d="M683.147 380.982C672.214 402.662 660.982 415.633 660.982 415.633L584.693 415.663L571.339 414.544C571.339 414.544 581.049 393.591 602.589 394.982C624.102 396.372 623.259 383.069 643.113 374.24C662.913 365.38 683.147 380.982 683.147 380.982Z" fill="#A8D29F"/>
<path d="M99.8743 263.299C94.1357 252.989 86.1125 257.796 79.3676 266.383C72.6226 274.97 74.8528 249.451 74.8528 245.702C74.8528 241.952 62.7772 248.362 62.7772 248.362C70.1749 237.931 77.1102 230.13 81.3258 230.16C87.9891 230.221 93.9453 247.909 99.8743 263.299Z" fill="#F8FCFF"/>
<path d="M269.314 270.982C266.811 263.575 262.732 256.318 260.094 254.806C257.428 253.264 255.28 254.232 255.28 254.232C247.121 253.173 244.727 263.756 244.836 267.415C244.863 268.533 244.918 269.652 244.89 270.831C244.809 273.522 244.21 276.425 241.681 279.721C237.438 285.224 238.472 288.64 241.246 290.696C242.225 291.422 243.394 291.997 244.646 292.45C245.081 292.601 245.516 292.753 245.978 292.873C247.012 293.176 248.018 293.387 248.97 293.539C251.363 293.962 253.24 293.992 253.24 293.992C253.376 286.705 258.652 286.04 261.997 286.735C262.677 286.887 263.303 287.098 263.765 287.31C264.418 287.612 264.799 287.945 264.69 288.157C265.071 288.247 265.424 288.338 265.778 288.398C267.981 288.761 269.477 288.157 270.401 286.887C272.496 283.954 271.489 277.423 269.314 270.982Z" fill="#163560"/>
<path d="M246.957 300.856H244.129C244.265 300.705 244.401 300.584 244.537 300.493C244.945 300.191 245.38 300.039 245.815 300.13C246.06 300.16 246.277 300.281 246.522 300.433C246.713 300.554 246.848 300.675 246.957 300.856Z" fill="#EBEEF2"/>
<path d="M264.146 300.856H245.951C245.897 300.614 245.869 300.372 245.815 300.1C245.652 298.921 245.543 297.681 245.625 296.29C245.706 295.141 245.815 293.962 245.951 292.843C246.685 287.098 248.181 282.17 248.317 281.746C248.317 281.716 248.317 281.716 248.317 281.716C248.317 281.716 248.997 281.505 249.786 281.263C251.309 280.779 252.342 279.207 252.342 277.453V277.392C252.342 276.576 252.315 275.76 252.288 275.064C252.288 274.853 252.261 274.671 252.261 274.49V274.308C252.261 274.218 252.261 274.127 252.261 274.036C252.261 274.006 252.261 273.976 252.261 273.946C252.261 273.794 252.234 273.673 252.234 273.552C252.234 273.522 252.234 273.492 252.234 273.462C252.234 273.432 252.234 273.371 252.234 273.341V273.311C252.234 273.22 252.234 273.19 252.234 273.19L258.38 271.829L258.761 271.738C258.761 274.55 259.142 276.788 259.631 278.3C260.039 279.569 261.018 280.477 262.188 280.779C262.569 280.87 263.248 280.96 263.575 281.081C263.575 281.081 263.656 283.621 263.792 287.28C263.901 290.878 264.064 295.564 264.173 299.858C264.119 300.221 264.146 300.523 264.146 300.856Z" fill="#FFB27D"/>
<path d="M252.206 273.22C252.206 273.22 252.342 275.367 252.342 277.393C255.796 277.272 257.619 273.794 258.353 271.859L252.206 273.22Z" fill="#E8945B"/>
<path d="M251.037 275.155C251.037 275.155 259.196 275.307 259.196 269.652C259.196 263.998 260.257 260.218 255.062 259.886C249.84 259.553 248.834 261.7 248.426 263.605C248.018 265.48 248.915 274.974 251.037 275.155Z" fill="#FFB27D"/>
<path d="M251.336 259.734C251.336 259.734 253.566 266.356 256.993 267.354C260.42 268.352 261.916 267.324 261.916 267.324C261.916 267.324 259.278 264.996 258.734 260.944C258.734 260.944 253.022 256.59 251.336 259.734Z" fill="#163560"/>
<path d="M251.907 260.279C251.907 260.279 250.248 260.974 249.568 262.304C248.888 263.605 248.344 265.358 248.453 267.505C248.453 267.505 246.767 263 248.671 260.46C250.683 257.739 251.907 260.279 251.907 260.279Z" fill="#163560"/>
<path d="M252.805 271.648C252.805 271.648 252.234 272.464 251.118 272.404C250.221 272.343 249.867 271.466 249.867 271.466C249.867 271.466 251.526 271.043 252.805 271.648Z" fill="#EBF3FA"/>
<path d="M265.397 300.856H263.765C263.765 300.826 263.765 300.826 263.765 300.795C263.765 300.402 263.738 300.009 263.684 299.586L264.119 299.888L265.397 300.856Z" fill="#EBEEF2"/>
<path d="M252.642 271.799C252.642 271.799 252.506 272.464 251.01 272.373C251.01 272.373 249.759 272.283 249.786 271.557C249.786 271.557 251.01 271.013 252.642 271.799Z" fill="white"/>
<path d="M272.36 294.536C271.788 291.452 271.163 288.671 270.456 287.128C270.429 287.038 270.374 286.977 270.347 286.887C267.899 281.777 263.52 281.142 263.52 281.142C254.926 288.943 248.317 281.746 248.317 281.746C248.317 281.746 244.673 282.684 243.585 284.498C243.177 285.193 242.252 287.763 241.219 290.696C239.777 294.809 238.145 299.586 237.465 300.856H244.591H249.323H263.792H267.274H273.447C273.094 298.8 272.74 296.592 272.36 294.536Z" fill="white"/>
<path d="M316.555 281.082C312.475 280.779 308.015 282.563 308.178 282.14C308.205 282.049 308.233 281.958 308.287 281.898C308.287 281.898 305.676 281.868 302.739 282.382C299.992 282.866 296.973 283.803 295.532 285.708C295.26 286.071 294.879 286.554 294.444 287.099C293.465 288.308 292.159 289.88 290.745 291.574C288.27 294.597 285.469 298.105 283.674 300.886H299.829H300.563H307.743C309.674 300.886 311.415 299.677 312.231 297.832L315.848 289.306L318.296 283.5L319.112 281.535C318.187 281.293 317.344 281.142 316.555 281.082Z" fill="#ABDDDA"/>
<path d="M319.547 280.386L319.084 281.475L318.268 283.44C316.446 284.045 313.971 284.589 311.36 284.408C311.279 284.408 311.224 284.408 311.143 284.408C310.381 284.347 309.593 284.226 308.804 284.015C308.804 284.015 308.477 283.894 308.26 283.591C308.069 283.319 307.934 282.866 308.178 282.201C308.205 282.11 308.233 282.019 308.287 281.959C307.988 280.598 308.015 280.719 307.852 279.691C307.825 279.479 307.77 279.237 307.743 279.026C307.716 278.844 307.689 278.633 307.662 278.481C307.553 277.877 307.498 277.363 307.444 276.97C307.444 276.939 307.444 276.879 307.417 276.849C307.417 276.788 307.417 276.728 307.39 276.667C307.39 276.637 307.39 276.607 307.39 276.607C307.362 276.214 307.335 276.002 307.335 276.002L307.498 275.851L311.306 272.011L312.883 270.408L314.651 268.594L315.032 268.201C315.032 268.655 315.059 269.138 315.114 269.562C315.141 269.743 315.141 269.925 315.168 270.106C315.222 270.65 315.304 271.195 315.413 271.709C315.929 274.46 316.909 276.637 317.915 278.27C318.486 279.086 319.057 279.812 319.547 280.386Z" fill="#FFB27D"/>
<path d="M315.358 271.92C315.358 271.92 312.965 277.695 307.852 279.63C307.444 277.272 307.226 274.853 307.226 274.853L311.306 271.981L315.358 271.92Z" fill="#ED985F"/>
<path d="M303.256 275.397C303.256 275.397 314.515 277.907 315.821 270.197C317.126 262.486 319.465 257.649 312.339 255.713C305.214 253.778 303.31 256.439 302.304 258.888C301.297 261.337 300.373 274.551 303.256 275.397Z" fill="#FFB27D"/>
<path d="M320.444 255.109C320.553 254.988 320.798 254.897 321.315 254.867C321.315 254.867 320.907 254.565 320.336 254.504C320.254 253.688 319.9 252.236 318.649 251.813C318.649 251.813 319.302 252.236 319.384 253.113C317.969 251.39 314.869 250.029 306.166 250.452C294.688 250.997 298.197 259.281 299.638 260.34C301.08 261.398 304.915 258.858 307.662 259.221C310.408 259.584 310.789 264.029 311.714 264.664C312.639 265.299 312.285 264.21 313.591 263.636C314.869 263.061 314.923 265.389 314.515 266.901C314.107 268.413 315.766 270.469 315.766 270.469C315.766 270.469 315.766 270.469 317.589 268.443C319.411 266.417 321.369 257.558 320.635 255.623C320.58 255.472 320.526 255.29 320.444 255.109Z" fill="#2C3A64"/>
<path d="M317.942 278.209C317.779 279.328 317.235 280.296 316.555 281.082C314.733 283.229 311.768 284.257 311.36 284.378C311.333 284.378 311.333 284.378 311.333 284.378C311.714 286.676 311.333 290.455 311.333 290.455C313.019 290.364 314.515 289.881 315.821 289.215L318.268 283.41L319.084 281.445L319.547 280.356L319.9 279.51C318.568 278.421 317.942 278.209 317.942 278.209Z" fill="#91CECF"/>
<path d="M311.306 284.408C311.306 284.408 307.607 286.222 307.118 289.488C307.118 289.488 305.921 286.978 306.41 285.345C306.9 283.712 308.26 281.898 308.26 281.898C308.26 281.898 308.015 283.894 311.306 284.408Z" fill="#91CECF"/>
<path d="M304.887 295.535C304.452 294.869 303.99 294.234 303.5 293.63C303.065 293.055 302.576 292.541 302.086 292.027C301.651 291.574 301.216 291.15 300.753 290.757C300.645 290.667 300.536 290.546 300.4 290.455C298.605 288.973 296.592 287.824 294.444 287.069C292.513 286.373 290.446 286.01 288.297 286.01C285.496 286.01 282.83 286.645 280.383 287.794C280.192 287.885 280.029 287.976 279.839 288.066C278.152 288.913 276.602 290.032 275.188 291.332C274.154 292.299 273.203 293.358 272.359 294.537C271 296.412 269.884 298.558 269.123 300.856H274.345C275.65 298.014 277.636 295.625 280.056 293.962C282.45 292.299 285.278 291.362 288.297 291.362C289.14 291.362 289.956 291.423 290.745 291.574C294.172 292.178 297.245 294.023 299.557 296.714C299.829 297.016 300.101 297.349 300.345 297.681C300.672 298.135 300.998 298.619 301.297 299.103C301.651 299.677 301.95 300.252 302.222 300.886H307.444C306.791 298.951 305.948 297.167 304.887 295.535Z" fill="#233862"/>
<path d="M301.76 269.865C301.76 269.865 301.868 271.225 302.576 271.467C303.283 271.709 304.371 271.648 304.833 271.165C305.295 270.651 305.295 270.651 305.295 270.651C305.295 270.651 302.603 269.592 301.76 269.865Z" fill="white"/>
<path d="M302.168 288.913C302.168 288.913 297.544 292.511 298.36 294.053C299.176 295.595 305.214 295.958 305.921 295.202C306.628 294.446 303.609 287.673 302.168 288.913Z" fill="#FFB27D"/>
<path d="M274.889 291.12C274.889 291.12 278.724 294.053 279.948 293.116C281.171 292.178 280.655 287.371 279.893 286.948C279.132 286.524 273.583 290.213 274.889 291.12Z" fill="#FFB27D"/>
<path d="M467.826 291.362C471.444 290.727 472.668 285.647 469.839 283.077C466.956 280.477 464.264 277.695 463.638 275.911C462.169 271.769 461.272 262.789 461.272 262.789L458.688 263.665C458.688 263.665 457.6 273.583 458.933 279.177C459.912 283.228 463.339 287.976 465.134 290.273C465.787 291.12 466.82 291.543 467.826 291.362Z" fill="#FFB27D"/>
<path d="M458.661 263.666C458.661 263.666 458.797 259.644 459.912 258.132C461.027 256.621 461.843 255.29 462.931 255.955C464.019 256.621 462.36 260.279 462.577 260.43C462.795 260.581 464.264 259.13 464.291 259.584C464.318 260.037 462.55 261.972 462.197 262.184C461.843 262.396 461.245 262.758 461.245 262.758L458.661 263.666Z" fill="#FFB27D"/>
<path d="M472.776 283.228C472.776 283.228 471.036 283.319 470.356 282.896C468.126 281.535 465.188 278.391 465.188 278.391C465.188 278.391 459.259 285.375 463.393 293.72C463.638 294.144 472.776 283.228 472.776 283.228Z" fill="#F77D48"/>
<path d="M487.409 302.882H461.299C461.897 299.617 462.605 296.502 463.448 293.721C463.856 292.33 464.318 290.999 464.78 289.82C466.249 286.192 468.017 283.712 470.138 283.35C470.247 283.319 470.356 283.319 470.492 283.319C470.954 283.289 471.498 283.259 472.096 283.259H472.124C472.341 283.259 472.559 283.259 472.804 283.259C474.979 283.289 477.699 283.591 480.337 284.68C480.555 284.771 480.8 284.861 481.017 284.982C482.296 285.587 483.519 286.403 484.634 287.462C485.151 287.945 485.614 288.49 486.076 289.064C486.783 290.032 487.082 294.658 487.191 298.105C487.273 300.312 487.273 302.005 487.273 302.005C487.273 302.005 487.3 302.308 487.409 302.882Z" fill="#F77D48"/>
<path d="M470.601 265.631C470.655 265.51 473.429 261.035 478.325 260.31C482.295 259.735 485.885 262.97 486.348 267.385C486.81 271.83 486.021 277.544 479.467 279.328L470.601 265.631Z" fill="#2C3A64"/>
<path d="M474.653 287.129C476.802 288.217 479.358 287.189 480.392 284.831C480.392 284.831 479.603 282.714 479.467 279.358C479.413 277.937 479.467 276.304 479.739 274.521L473.266 277.363C473.266 277.363 473.348 278.028 473.375 278.965C473.402 279.993 473.32 281.354 472.94 282.624V282.654C472.396 284.438 473.13 286.373 474.653 287.129Z" fill="#FFB27D"/>
<path d="M472.939 282.624C476.448 282.896 479.467 279.358 479.467 279.358L473.375 278.965C473.375 279.993 473.293 281.354 472.939 282.624Z" fill="#EA9C68"/>
<path d="M471.417 280.266C471.417 280.266 478.243 283.078 481.208 277.182C484.417 270.802 481.996 265.601 479.63 265.027C474.952 263.847 472.015 265.541 471.009 267.597C469.975 269.592 467.663 278.754 471.417 280.266Z" fill="#FFB27D"/>
<path d="M474.517 277.091C474.517 277.091 474.163 277.847 472.341 277.212C472.341 277.212 470.818 276.667 471.09 275.76C471.09 275.76 472.722 275.549 474.517 277.091Z" fill="white"/>
<path d="M476.72 265.631C476.72 265.631 475.85 272.797 481.887 275.579C484.308 276.698 485.913 265.752 480.881 263.363C475.85 260.975 470.737 263.363 470.029 267.173C469.295 270.983 469.73 271.799 469.73 271.799C469.73 271.799 472.368 264.603 476.72 265.631Z" fill="#2C3A64"/>
<path d="M484.662 266.931C484.906 265.964 484.743 265.692 484.444 265.601C484.172 265.51 483.9 265.661 483.655 266.599C483.411 267.566 483.71 268.504 483.71 268.504C483.71 268.504 484.417 267.899 484.662 266.931Z" fill="#F99746"/>
<path d="M482.676 266.93C481.969 266.295 481.697 266.356 481.507 266.628C481.316 266.87 481.316 267.202 482.023 267.837C482.731 268.472 483.601 268.533 483.601 268.533C483.601 268.533 483.356 267.535 482.676 266.93Z" fill="#F99746"/>
<path d="M485.369 267.748C486.266 267.596 486.484 267.838 486.511 268.141C486.538 268.443 486.402 268.746 485.505 268.866C484.607 269.018 483.818 268.534 483.818 268.534C483.818 268.534 484.471 267.899 485.369 267.748Z" fill="#F99746"/>
<path d="M484.961 269.955C485.369 270.832 485.233 271.164 484.988 271.285C484.743 271.437 484.444 271.346 484.036 270.469C483.628 269.592 483.764 268.594 483.764 268.594C483.764 268.594 484.553 269.078 484.961 269.955Z" fill="#F99746"/>
<path d="M482.023 269.048C481.262 269.562 481.235 269.895 481.371 270.167C481.507 270.439 481.806 270.56 482.567 270.015C483.329 269.501 483.655 268.564 483.655 268.564C483.655 268.564 482.785 268.534 482.023 269.048Z" fill="#F99746"/>
<path d="M484.118 268.503C484.118 268.261 483.954 268.08 483.764 268.08C483.546 268.08 483.383 268.261 483.383 268.473C483.383 268.714 483.546 268.895 483.737 268.895C483.954 268.926 484.118 268.744 484.118 268.503Z" fill="#FFB93E"/>
<path d="M489.612 296.563C489.612 298.74 489.448 301.007 488.959 302.882H483.302C483.41 301.945 483.275 300.554 483.003 298.981C482.703 297.258 482.214 295.323 481.67 293.388C480.908 290.636 482.459 288.096 484.607 287.431C485.505 287.159 486.511 287.22 487.463 287.703C488.388 288.187 489.04 289.155 489.176 290.304C489.394 291.846 489.584 294.144 489.612 296.563Z" fill="#FFB27D"/>
<path d="M480.392 284.861C480.392 284.861 485.559 285.678 488.061 287.583C490.536 289.487 491.706 294.386 491.706 294.386C491.706 294.386 487.708 300.07 481.398 298.83L480.392 284.861Z" fill="#F77D48"/>
<path d="M482.758 261.942C482.758 261.942 487.789 259.826 493.229 261.942C498.668 264.059 495.486 270.801 497.526 272.797C499.566 274.793 502.149 280.175 500.599 283.259C499.049 286.343 493.637 287.703 489.611 286.585C486.293 285.678 483.166 279.993 486.511 275.669C490.89 270.015 488.986 262.759 482.731 264.21L482.758 261.942Z" fill="#2C3A64"/>
<path d="M503.564 303.819H454.364C451.535 303.819 449.251 301.28 449.251 298.135V250.785C449.251 247.64 451.535 245.101 454.364 245.101H503.564C506.392 245.101 508.677 247.64 508.677 250.785V298.135C508.677 301.249 506.365 303.819 503.564 303.819ZM454.337 246.975C452.46 246.975 450.91 248.699 450.91 250.785V298.135C450.91 300.221 452.46 301.945 454.337 301.945H503.537C505.413 301.945 506.963 300.221 506.963 298.135V250.785C506.963 248.699 505.413 246.975 503.537 246.975H454.337Z" fill="#2C3A64"/>
<path d="M404.158 288.852C404.158 288.852 394.203 276.093 393.687 274.46C393.17 272.827 391.565 258.677 391.565 258.677L388.845 258.646C388.845 258.646 387.458 275.155 388.22 278.512C388.981 281.868 400.649 297.379 400.649 297.379L404.158 288.852Z" fill="#FFB27D"/>
<path d="M406.252 285.345C406.605 284.801 406.877 284.226 407.068 283.591C407.53 282.2 407.639 280.658 407.666 279.509C407.666 278.451 407.584 277.725 407.584 277.725L414.928 274.792C414.574 276.788 414.465 278.602 414.493 280.175C414.547 283.954 415.363 286.343 415.363 286.343L415.227 286.706C416.016 286.917 416.859 287.159 417.756 287.431L408.21 292.42L403.07 285.919C403.097 285.919 403.886 285.375 406.252 285.345Z" fill="#FFB27D"/>
<path d="M407.095 283.591C411.011 284.045 414.52 280.174 414.52 280.174L407.693 279.509C407.666 280.658 407.53 282.2 407.095 283.591Z" fill="#EA9C68"/>
<path d="M443.675 263.907C443.675 263.907 440.167 277.483 437.692 281.293C437.42 281.686 437.121 282.17 436.767 282.744C436.278 283.5 435.679 284.407 435.026 285.405C433.748 287.34 432.225 289.548 430.648 291.543C428.581 294.174 426.405 296.472 424.556 297.409C423.957 297.711 423.413 297.863 422.896 297.863C422.516 297.863 422.189 297.772 421.89 297.681C420.884 297.318 420.313 296.411 420.014 295.383C419.361 293.115 419.959 290.122 419.959 290.122C419.959 290.122 420.558 289.457 421.509 288.429C422.652 287.189 424.284 285.435 426.051 283.652C428.064 281.595 430.213 279.509 431.953 278.088C432.416 277.695 432.878 277.362 433.259 277.09C433.259 277.09 433.993 275.639 434.999 273.674C437.066 269.622 440.276 263.303 440.629 262.728C440.656 262.698 440.684 262.637 440.711 262.637C441.336 262.093 443.349 263.726 443.621 263.937C443.648 263.907 443.675 263.907 443.675 263.907Z" fill="#FFB27D"/>
<path d="M405.463 280.9C405.463 280.9 412.997 284.317 416.505 277.786C420.285 270.741 417.702 264.875 415.091 264.119C409.896 262.637 406.551 264.421 405.354 266.659C404.158 268.896 401.302 279.056 405.463 280.9Z" fill="#FFB27D"/>
<path d="M409.379 277.453C409.379 277.453 408.428 278.662 406.415 277.846C406.415 277.846 404.593 277.211 405.191 275.85C405.218 275.85 407.448 275.669 409.379 277.453Z" fill="white"/>
<path d="M414.819 279.993C414.819 279.993 416.07 277.12 416.152 275.518C416.152 275.518 418.518 272.918 417.43 272.041C416.342 271.164 415.499 272.766 415.254 272.404C415.009 272.041 415.254 266.296 413.785 266.266C412.317 266.235 406.769 267.324 404.702 264.724C402.635 262.154 409.298 254.202 418.545 258.949C427.765 263.726 424.42 275.337 414.819 279.993Z" fill="#2C3A64"/>
<path d="M422.733 264.3C422.733 264.3 423.332 262.909 422.978 261.821C422.978 261.821 422.788 263.242 422.217 263.786C421.645 264.33 422.733 264.3 422.733 264.3Z" fill="#2C3A64"/>
<path d="M422.652 263.272C422.652 263.272 423.848 263.302 424.311 264.391C424.311 264.391 423.549 263.635 422.625 264.179L422.652 263.272Z" fill="#2C3A64"/>
<path d="M426.051 291.151L424.556 297.409L423.984 299.828C423.984 299.858 423.984 299.858 423.984 299.889L423.685 301.128L423.495 301.915H395.998L396.923 297.228L397.685 293.328L399.153 285.95C399.153 285.95 399.969 285.648 401.492 285.375C402.662 285.164 404.212 284.982 406.17 284.922C406.143 285.073 406.143 285.224 406.143 285.375C406.116 286.434 406.605 287.401 408.455 287.915C411.174 288.671 413.84 287.22 415.308 286.071C415.363 286.041 415.39 286.01 415.444 285.98C417.403 286.555 419.415 287.341 421.537 288.46C422.978 289.185 424.501 290.092 426.051 291.151Z" fill="#F77D48"/>
<path d="M430.702 293.237C430.702 293.237 424.719 296.653 423.957 299.889C423.957 299.889 416.179 292.299 415.417 285.95C415.417 285.95 417.158 286.04 419.225 287.069C419.225 287.069 420.34 286.675 421.455 286.796L426.051 283.622C426.051 283.622 430.784 285.738 430.702 293.237Z" fill="#F77D48"/>
<path d="M406.143 284.892C406.143 284.892 403.804 284.317 402.934 284.438C402.934 284.438 402.553 284.015 401.574 283.833L396.896 279.479C396.896 279.479 393.061 282.866 393.306 288.339C393.306 288.339 397.195 291.816 397.168 292.511C397.141 293.207 396.869 297.258 396.869 297.258L406.143 284.892Z" fill="#F77D48"/>
<path d="M391.565 258.646C391.565 258.646 391.674 257.346 392.163 256.318C392.653 255.29 392.762 252.418 392.272 252.508C391.783 252.599 391.864 253.657 391.348 253.446C390.831 253.264 390.341 249.848 389.607 250.029C388.873 250.241 388.247 251.269 388.166 253.688C388.111 256.106 388.818 258.616 388.818 258.616L391.565 258.646Z" fill="#FFB27D"/>
<path d="M440.711 262.668C440.711 262.668 441.146 261.277 441.091 259.977C441.01 258.646 442.098 255.683 442.587 256.046C443.077 256.409 442.533 257.407 443.131 257.497C443.757 257.558 445.661 254.323 446.341 254.927C446.993 255.502 447.211 256.893 446.259 259.402C445.307 261.912 443.512 264.119 443.512 264.119L440.711 262.668Z" fill="#FFB27D"/>
<path d="M431.219 303.819H382.019C379.19 303.819 376.906 301.28 376.906 298.135V250.785C376.906 247.64 379.19 245.101 382.019 245.101H431.219C434.047 245.101 436.332 247.64 436.332 250.785V298.135C436.332 301.249 434.02 303.819 431.219 303.819ZM382.019 246.975C380.142 246.975 378.592 248.699 378.592 250.785V298.135C378.592 300.221 380.142 301.945 382.019 301.945H431.219C433.095 301.945 434.646 300.221 434.646 298.135V250.785C434.646 248.699 433.095 246.975 431.219 246.975H382.019Z" fill="#2C3A64"/>
<path d="M307.199 302.64H223.704C221.637 302.64 219.733 301.521 218.618 299.616C217.53 297.772 217.367 295.474 218.183 293.478L221.881 284.286L236.677 247.549C237.629 245.161 239.804 243.619 242.171 243.619H330.263C331.432 243.619 332.493 244.254 333.118 245.342C333.717 246.4 333.798 247.701 333.336 248.85L312.666 298.77C311.714 301.128 309.538 302.64 307.199 302.64ZM242.198 246.098C240.702 246.098 239.342 247.066 238.716 248.547L220.195 294.446C219.706 295.686 219.787 297.076 220.467 298.225C221.174 299.435 222.371 300.13 223.676 300.13H307.172C308.668 300.13 310.028 299.193 310.653 297.711L331.323 247.791C331.486 247.428 331.459 247.005 331.242 246.673C331.024 246.279 330.671 246.068 330.235 246.068H242.198V246.098Z" fill="#163560"/>
<path d="M359.092 333.662C358.112 333.662 357.297 332.785 357.297 331.667V325.468C357.297 324.38 358.085 323.473 359.092 323.473C360.071 323.473 360.887 324.35 360.887 325.468V331.667C360.859 332.755 360.071 333.662 359.092 333.662Z" fill="#163560"/>
<path d="M371.358 237.481H369.671V394.951H371.358V237.481Z" fill="#0F214F"/>
<path d="M530.679 343.913H509.221C507.127 343.913 505.413 342.008 505.413 339.68V327.615C505.413 325.287 507.127 323.382 509.221 323.382H530.679C532.774 323.382 534.487 325.287 534.487 327.615V339.68C534.46 342.008 532.774 343.913 530.679 343.913ZM509.221 324.32C507.589 324.32 506.256 325.801 506.256 327.615V339.68C506.256 341.494 507.589 342.975 509.221 342.975H530.679C532.311 342.975 533.644 341.494 533.644 339.68V327.615C533.644 325.801 532.311 324.32 530.679 324.32H509.221Z" fill="#0F214F"/>
</svg>
