<svg width="322" height="322" viewBox="0 0 322 322" fill="none" xmlns="http://www.w3.org/2000/svg">
<rect x="0.5" y="0.5" width="321" height="321" rx="160.5" fill="white"/>
<g clip-path="url(#clip0)">
<path d="M311 110.294V143.716L310.435 142.874L269.9 82.565L269.519 82H291.983L292.361 82.565L310.435 109.452L311 110.294Z" fill="#F9A826"/>
<path d="M169.235 81.9997C148.451 81.9731 127.867 86.0538 108.665 94.0073C89.4637 101.961 72.023 113.63 57.3454 128.345C54.8284 130.862 52.4084 133.449 50.0854 136.105C45.3139 141.545 40.9239 147.307 36.9468 153.351C35.7998 155.094 34.6887 156.86 33.6134 158.648C29.7518 165.064 26.3505 171.745 23.4352 178.643C23.116 179.394 22.8043 180.148 22.5001 180.906C20.808 185.078 19.3023 189.305 17.9831 193.587C14.5949 204.566 12.4255 215.885 11.5141 227.339C11.1722 231.607 11.0009 235.906 10.9999 240.234V240.517H311V81.9997H169.235ZM310.435 239.952H11.5649C11.5706 236.11 11.7137 232.303 11.9943 228.531C12.8423 216.977 14.9702 205.552 18.3391 194.468C19.6555 190.135 21.1508 185.883 22.825 181.713C25.9229 173.99 29.6305 166.526 33.9128 159.391C34.9834 157.597 36.0936 155.827 37.2434 154.08C41.2118 148.016 45.5932 142.231 50.3566 136.769C79.2837 103.576 121.852 82.5647 169.235 82.5647H310.435V239.952Z" fill="#3F3D56"/>
<path d="M151.001 217.84C154.811 229.306 153.472 240.072 153.472 240.072C153.472 240.072 145.957 232.248 142.147 220.781C138.337 209.315 139.675 198.549 139.675 198.549C139.675 198.549 147.191 206.373 151.001 217.84Z" fill="#F9A826"/>
<path d="M155.944 217.84C152.134 229.306 153.472 240.072 153.472 240.072C153.472 240.072 160.988 232.248 164.798 220.781C168.608 209.315 167.27 198.549 167.27 198.549C167.27 198.549 159.754 206.373 155.944 217.84Z" fill="#F9A826"/>
<path d="M157.479 217.964C157.734 230.044 153.278 239.935 153.278 239.935C153.278 239.935 148.407 230.241 148.152 218.161C147.896 206.081 152.353 196.19 152.353 196.19C152.353 196.19 157.223 205.884 157.479 217.964Z" fill="#3F3D56"/>
<path d="M153.275 240.663C159.226 240.663 164.05 240.398 164.05 240.071C164.05 239.745 159.226 239.48 153.275 239.48C147.325 239.48 142.501 239.745 142.501 240.071C142.501 240.398 147.325 240.663 153.275 240.663Z" fill="#3F3D56"/>
<path d="M50.5515 240.255C53.9279 240.255 56.665 237.518 56.665 234.142C56.665 230.765 53.9279 228.028 50.5515 228.028C47.1752 228.028 44.4381 230.765 44.4381 234.142C44.4381 237.518 47.1752 240.255 50.5515 240.255Z" fill="#F2F2F2"/>
<path d="M51.6731 224.251C49.4813 224.254 47.3802 225.126 45.8307 226.677C44.2812 228.227 43.4097 230.328 43.4074 232.52C43.4074 232.565 43.4074 232.61 43.4102 232.655C43.4372 234.181 43.8851 235.67 44.7046 236.958C45.5241 238.245 46.6833 239.282 48.0544 239.952C48.5396 240.191 49.0479 240.381 49.5714 240.517C50.9501 240.879 52.3989 240.879 53.7777 240.517C54.3011 240.381 54.8094 240.191 55.2946 239.952C56.9757 239.133 58.3294 237.769 59.135 236.081C59.9406 234.394 60.1503 232.483 59.7301 230.661C59.3098 228.839 58.2843 227.213 56.821 226.049C55.3577 224.885 53.543 224.251 51.6731 224.251ZM53.6957 239.952C53.0368 240.133 52.3564 240.224 51.6731 240.223C51.5375 240.223 51.4019 240.22 51.2691 240.212H51.2663C50.7207 240.185 50.1798 240.098 49.6533 239.952C48.5403 239.647 47.5096 239.097 46.6371 238.342C45.7645 237.587 45.0721 236.645 44.6108 235.588V235.585C43.9861 234.144 43.8167 232.547 44.1253 231.007C44.4339 229.468 45.2058 228.059 46.3376 226.971C47.4693 225.882 48.9068 225.166 50.4572 224.917C52.0077 224.669 53.5971 224.9 55.0123 225.58C56.4275 226.261 57.6009 227.358 58.3753 228.724C59.1496 230.09 59.4878 231.66 59.3445 233.223C59.2013 234.787 58.5834 236.27 57.5738 237.472C56.5642 238.675 55.211 239.54 53.6957 239.952Z" fill="#3F3D56"/>
<path d="M121.169 192.602H75.4052V200.728H121.169V192.602Z" fill="#F2F2F2"/>
<path d="M263.827 116.612H218.063V124.738H263.827V116.612Z" fill="#F2F2F2"/>
<path d="M263.827 134.409H218.063V142.535H263.827V134.409Z" fill="#F2F2F2"/>
<path d="M263.827 151.641H218.063V159.767H263.827V151.641Z" fill="#F2F2F2"/>
<path d="M263.827 168.873H218.063V176.999H263.827V168.873Z" fill="#F2F2F2"/>
<path d="M263.827 186.67H218.063V194.796H263.827V186.67Z" fill="#F2F2F2"/>
<path d="M263.827 204.467H218.063V212.593H263.827V204.467Z" fill="#F2F2F2"/>
<path d="M75.1227 189.711V201.011H136.141V189.711H75.1227ZM135.576 200.446H75.6877V190.276H135.576V200.446Z" fill="#3F3D56"/>
<path d="M176.819 128.975C178.38 128.975 179.644 127.711 179.644 126.151C179.644 124.59 178.38 123.326 176.819 123.326C175.259 123.326 173.995 124.59 173.995 126.151C173.995 127.711 175.259 128.975 176.819 128.975Z" fill="#3F3D56"/>
<path d="M176.819 146.49C178.38 146.49 179.644 145.225 179.644 143.665C179.644 142.105 178.38 140.84 176.819 140.84C175.259 140.84 173.995 142.105 173.995 143.665C173.995 145.225 175.259 146.49 176.819 146.49Z" fill="#3F3D56"/>
<path d="M176.819 164.004C178.38 164.004 179.644 162.74 179.644 161.179C179.644 159.619 178.38 158.355 176.819 158.355C175.259 158.355 173.995 159.619 173.995 161.179C173.995 162.74 175.259 164.004 176.819 164.004Z" fill="#3F3D56"/>
<path d="M176.819 181.519C178.38 181.519 179.644 180.254 179.644 178.694C179.644 177.134 178.38 175.869 176.819 175.869C175.259 175.869 173.995 177.134 173.995 178.694C173.995 180.254 175.259 181.519 176.819 181.519Z" fill="#3F3D56"/>
<path d="M176.819 199.033C178.38 199.033 179.644 197.769 179.644 196.208C179.644 194.648 178.38 193.383 176.819 193.383C175.259 193.383 173.995 194.648 173.995 196.208C173.995 197.769 175.259 199.033 176.819 199.033Z" fill="#3F3D56"/>
<path d="M176.819 216.548C178.38 216.548 179.644 215.283 179.644 213.723C179.644 212.163 178.38 210.898 176.819 210.898C175.259 210.898 173.995 212.163 173.995 213.723C173.995 215.283 175.259 216.548 176.819 216.548Z" fill="#3F3D56"/>
<path d="M279.646 125.868H202.244V126.433H279.646V125.868Z" fill="#3F3D56"/>
<path d="M279.646 143.383H202.244V143.948H279.646V143.383Z" fill="#3F3D56"/>
<path d="M279.646 160.897H202.244V161.462H279.646V160.897Z" fill="#3F3D56"/>
<path d="M279.646 178.411H202.244V178.976H279.646V178.411Z" fill="#3F3D56"/>
<path d="M279.646 195.926H202.244V196.491H279.646V195.926Z" fill="#3F3D56"/>
<path d="M279.646 213.44H202.244V214.005H279.646V213.44Z" fill="#3F3D56"/>
<path d="M293.59 229.804L286.165 223.712L292.257 216.286L299.682 222.378L293.59 229.804ZM286.96 223.633L293.512 229.009L298.887 222.457L292.335 217.081L286.96 223.633Z" fill="#3F3D56"/>
<path d="M186.006 96.9913L179.017 91.2578L173.283 98.2466L180.272 103.98L186.006 96.9913Z" fill="#F9A826"/>
<path d="M143.203 143.665C143.216 151.633 140.682 159.397 135.971 165.824C135.435 166.558 134.872 167.276 134.282 167.968C132.614 169.933 130.75 171.722 128.717 173.307C128.514 173.465 128.307 173.623 128.098 173.779C127.336 174.349 126.551 174.891 125.745 175.403C125.499 175.558 125.254 175.711 125.005 175.858C124.443 176.2 123.87 176.525 123.287 176.835C123.002 176.988 122.714 177.137 122.426 177.281C116.505 180.236 109.909 181.575 103.304 181.164C96.7 180.752 90.3211 178.605 84.8122 174.94C84.5184 174.748 84.2302 174.55 83.9449 174.346C83.4082 173.968 82.8799 173.572 82.3658 173.166C81.8912 172.793 81.4279 172.406 80.9731 172.01C78.5786 169.928 76.4572 167.551 74.6594 164.937C74.3091 164.425 73.9701 163.906 73.6424 163.377C70.5953 158.432 68.7361 152.848 68.2111 147.063C67.686 141.278 68.5093 135.45 70.6163 130.037C72.7233 124.624 76.0566 119.774 80.3544 115.866C84.6523 111.959 89.7975 109.101 95.386 107.517C100.975 105.933 106.854 105.667 112.563 106.739C118.272 107.811 123.655 110.191 128.288 113.694C132.922 117.197 136.68 121.726 139.268 126.927C141.856 132.127 143.203 137.856 143.203 143.665Z" fill="#3F3D56"/>
<path d="M104.217 141.811C109.87 141.811 114.453 137.228 114.453 131.575C114.453 125.922 109.87 121.34 104.217 121.34C98.5637 121.34 93.981 125.922 93.981 131.575C93.981 137.228 98.5637 141.811 104.217 141.811Z" fill="#A0616A"/>
<path d="M97.1797 136.48C97.1797 136.48 100.592 144.157 95.9002 147.142C91.2088 150.128 103.577 162.496 103.577 162.496L117.225 147.995C117.225 147.995 109.974 143.304 111.254 135.627L97.1797 136.48Z" fill="#A0616A"/>
<path d="M128.717 173.307C128.514 173.465 128.307 173.623 128.098 173.779C127.336 174.349 126.551 174.891 125.745 175.403C125.499 175.558 125.254 175.711 125.005 175.858L124.9 175.29L125.884 174.779L128.717 173.307Z" fill="#A0616A"/>
<path d="M125.005 175.858C125.254 175.711 125.499 175.558 125.745 175.403L125.754 175.29L125.884 174.779L131.299 153.541L114.883 145.987L105.284 151.835L96.6852 146.532C96.6852 146.532 91.6343 146.716 90.3546 147.996C89.3518 148.998 84.4336 151.306 82.3432 152.261C81.7612 152.527 81.3996 152.688 81.3996 152.688C81.3996 152.688 81.7217 162.366 82.3658 173.166C82.8799 173.572 83.4082 173.968 83.9449 174.346C84.2302 174.55 84.5183 174.748 84.8121 174.94C90.3211 178.606 96.7 180.752 103.304 181.164C109.909 181.575 116.505 180.236 122.426 177.281L125.005 175.858Z" fill="#F9A826"/>
<path d="M84.8121 152.261V174.94C84.5183 174.748 84.2302 174.55 83.9449 174.346C83.4082 173.968 82.8799 173.572 82.3657 173.166C81.8912 172.793 81.4279 172.406 80.9731 172.01C78.5786 169.928 76.4572 167.551 74.6594 164.937C74.3091 164.425 73.9701 163.906 73.6424 163.377C73.9193 162.468 74.23 161.463 74.5746 160.363C76.7074 153.541 81.3996 152.261 81.3996 152.261H84.8121Z" fill="#F9A826"/>
<path d="M125.005 175.858C125.254 175.711 125.499 175.558 125.745 175.403C126.55 174.892 127.335 174.35 128.098 173.779C128.307 173.623 128.514 173.465 128.717 173.307C130.75 171.722 132.614 169.933 134.282 167.968C134.872 167.276 135.435 166.558 135.971 165.824C134.234 160.394 131.299 153.541 131.299 153.541L125.327 153.114C125.327 153.114 122.903 172.516 122.426 177.281L125.005 175.858Z" fill="#F9A826"/>
<path d="M97.941 119.728C97.4289 120.164 96.8945 120.573 96.3399 120.953C95.6405 121.533 94.9945 122.175 94.4097 122.87L93.7497 123.609C93.188 124.238 92.5921 124.956 92.6158 125.799C92.6246 126.111 92.7207 126.415 92.7583 126.725C92.9076 127.957 92.1546 129.311 92.7745 130.387C92.9537 130.697 93.2309 130.94 93.4284 131.24C93.6798 131.624 93.7912 132.083 93.7438 132.539C94.4099 132.566 94.9563 131.969 95.1652 131.336C95.3741 130.703 95.3459 130.019 95.4476 129.36C95.5494 128.701 95.8352 128.004 96.4338 127.71C97.7112 127.085 99.1781 128.712 100.542 128.306C101.494 128.023 101.996 126.843 102.969 126.645C103.666 126.504 104.336 126.917 104.984 127.211C105.631 127.504 106.504 127.64 106.962 127.096C107.265 126.736 107.297 126.159 107.7 125.915C108.181 125.621 108.785 126.03 109.15 126.46C109.514 126.89 109.917 127.416 110.481 127.4C111.229 127.38 111.802 126.383 112.512 126.62C113.314 126.886 112.945 128.169 113.431 128.859C113.842 129.443 114.703 129.409 115.411 129.312C115.53 129.325 115.65 129.306 115.761 129.259C115.871 129.212 115.968 129.138 116.041 129.043C116.115 128.948 116.164 128.837 116.182 128.718C116.201 128.6 116.19 128.479 116.149 128.366L115.853 124.447C115.852 124.177 115.793 123.91 115.68 123.665C115.474 123.292 115.048 123.103 114.758 122.791C114.149 122.136 114.179 120.986 113.421 120.509C113.028 120.261 112.513 120.268 112.123 120.016C111.622 119.693 111.46 119.046 111.11 118.564C110.608 117.875 109.731 117.556 108.884 117.468C108.036 117.38 107.18 117.486 106.329 117.458C104.597 117.402 102.865 116.914 101.125 117.2C99.6067 117.449 98.9693 118.737 97.941 119.728Z" fill="#2F2E41"/>
<path d="M299.711 117.791C300.364 117.791 300.893 117.261 300.893 116.608C300.893 115.955 300.364 115.425 299.711 115.425C299.058 115.425 298.528 115.955 298.528 116.608C298.528 117.261 299.058 117.791 299.711 117.791Z" fill="#3F3D56"/>
<path d="M291.518 103.384C292.172 103.384 292.701 102.854 292.701 102.201C292.701 101.548 292.172 101.018 291.518 101.018C290.865 101.018 290.336 101.548 290.336 102.201C290.336 102.854 290.865 103.384 291.518 103.384Z" fill="#3F3D56"/>
<path d="M288.129 87.8465C288.782 87.8465 289.311 87.3171 289.311 86.6639C289.311 86.0108 288.782 85.4814 288.129 85.4814C287.475 85.4814 286.946 86.0108 286.946 86.6639C286.946 87.3171 287.475 87.8465 288.129 87.8465Z" fill="#3F3D56"/>
</g>
<rect x="0.5" y="0.5" width="321" height="321" rx="160.5" stroke="#F4A261"/>
<defs>
<clipPath id="clip0">
<rect width="300" height="158.788" fill="white" transform="translate(11 82)"/>
</clipPath>
</defs>
</svg>
