<svg width="320" height="320" viewBox="0 0 320 320" fill="none" xmlns="http://www.w3.org/2000/svg">
<rect x="0.5" y="0.5" width="319" height="319" rx="159.5" fill="white"/>
<g clip-path="url(#clip0)">
<path d="M85.0017 227.008C93.6183 227.008 100.603 220.023 100.603 211.406C100.603 202.79 93.6183 195.805 85.0017 195.805C76.3851 195.805 69.4 202.79 69.4 211.406C69.4 220.023 76.3851 227.008 85.0017 227.008Z" fill="#F2F2F2"/>
<path d="M87.5386 224.725C96.1552 224.725 103.14 217.74 103.14 209.123C103.14 200.507 96.1552 193.522 87.5386 193.522C78.922 193.522 71.9369 200.507 71.9369 209.123C71.9369 217.74 78.922 224.725 87.5386 224.725Z" fill="#F9A826"/>
<path d="M293.138 191.86H100.103V192.387H293.138V191.86Z" fill="#3F3D56"/>
<path d="M200.076 78.912H131.561V77.4999H100.493V78.912H31.6954C31.0867 78.912 30.4841 79.0319 29.9218 79.2648C29.3595 79.4977 28.8486 79.8391 28.4182 80.2695C27.9879 80.6998 27.6465 81.2107 27.4136 81.773C27.1807 82.3353 27.0608 82.938 27.0608 83.5466V177.365C27.0608 178.595 27.5491 179.773 28.4182 180.643C29.2874 181.512 30.4662 182 31.6954 182H200.076C201.306 182 202.484 181.512 203.354 180.643C204.223 179.773 204.711 178.595 204.711 177.365V83.5466C204.711 82.938 204.591 82.3353 204.358 81.773C204.125 81.2107 203.784 80.6998 203.354 80.2695C202.923 79.8391 202.412 79.4977 201.85 79.2648C201.288 79.0319 200.685 78.912 200.076 78.912Z" fill="#3F3D56"/>
<path d="M198.497 87.1026H33.2744V180.305H198.497V87.1026Z" fill="#F9A826"/>
<path d="M115.745 84.5607C116.681 84.5607 117.439 83.802 117.439 82.8661C117.439 81.9302 116.681 81.1715 115.745 81.1715C114.809 81.1715 114.05 81.9302 114.05 82.8661C114.05 83.802 114.809 84.5607 115.745 84.5607Z" fill="#F9A826"/>
<path opacity="0.1" d="M151.247 180.305H33.2744V87.1027L151.247 180.305Z" fill="black"/>
<path d="M59.1268 173.331C67.8981 173.331 75.0086 166.22 75.0086 157.449C75.0086 148.678 67.8981 141.567 59.1268 141.567C50.3556 141.567 43.2451 148.678 43.2451 157.449C43.2451 166.22 50.3556 173.331 59.1268 173.331Z" fill="#F2F2F2"/>
<path d="M169.729 137.368H154.296V140.593H169.729V137.368Z" fill="#3F3D56"/>
<path d="M188.388 112.259H135.637V113.641H188.388V112.259Z" fill="#3F3D56"/>
<path d="M188.388 116.636H135.637V118.018H188.388V116.636Z" fill="#3F3D56"/>
<path d="M188.388 121.013H135.637V122.395H188.388V121.013Z" fill="#3F3D56"/>
<path d="M188.388 125.389H135.637V126.771H188.388V125.389Z" fill="#3F3D56"/>
<path d="M188.388 129.766H135.637V131.148H188.388V129.766Z" fill="#3F3D56"/>
<path d="M188.388 88.9935H181.938V95.4434H188.388V88.9935Z" fill="#F2F2F2"/>
<path d="M191.383 98.4379H183.551V90.6059H191.383V98.4379ZM183.891 98.0974H191.042V90.9465H183.891V98.0974Z" fill="#3F3D56"/>
<path d="M209.35 178.611H193.225V177.449C193.225 177.419 193.219 177.389 193.208 177.361C193.196 177.333 193.179 177.308 193.158 177.286C193.137 177.265 193.111 177.248 193.083 177.236C193.055 177.225 193.025 177.219 192.995 177.219H187.467C187.436 177.219 187.406 177.225 187.378 177.236C187.35 177.248 187.325 177.265 187.304 177.286C187.282 177.308 187.265 177.333 187.254 177.361C187.242 177.389 187.236 177.419 187.236 177.449V178.611H183.781V177.449C183.781 177.419 183.775 177.389 183.763 177.361C183.752 177.333 183.735 177.308 183.713 177.286C183.692 177.265 183.667 177.248 183.639 177.236C183.611 177.225 183.581 177.219 183.551 177.219H178.022C177.992 177.219 177.962 177.225 177.934 177.236C177.906 177.248 177.881 177.265 177.859 177.286C177.838 177.308 177.821 177.333 177.809 177.361C177.798 177.389 177.792 177.419 177.792 177.449V178.611H174.336V177.449C174.336 177.419 174.331 177.389 174.319 177.361C174.307 177.333 174.29 177.308 174.269 177.286C174.248 177.265 174.222 177.248 174.194 177.236C174.166 177.225 174.136 177.219 174.106 177.219H168.578C168.547 177.219 168.517 177.225 168.49 177.236C168.462 177.248 168.436 177.265 168.415 177.286C168.393 177.308 168.376 177.333 168.365 177.361C168.353 177.389 168.347 177.419 168.347 177.449V178.611H164.892V177.449C164.892 177.419 164.886 177.389 164.874 177.361C164.863 177.333 164.846 177.308 164.825 177.286C164.803 177.265 164.778 177.248 164.75 177.236C164.722 177.225 164.692 177.219 164.662 177.219H159.133C159.103 177.219 159.073 177.225 159.045 177.236C159.017 177.248 158.992 177.265 158.97 177.286C158.949 177.308 158.932 177.333 158.92 177.361C158.909 177.389 158.903 177.419 158.903 177.449V178.611H155.448V177.449C155.448 177.419 155.442 177.389 155.43 177.361C155.418 177.333 155.401 177.308 155.38 177.286C155.359 177.265 155.333 177.248 155.305 177.236C155.277 177.225 155.247 177.219 155.217 177.219H149.689C149.658 177.219 149.628 177.225 149.601 177.236C149.573 177.248 149.547 177.265 149.526 177.286C149.504 177.308 149.487 177.333 149.476 177.361C149.464 177.389 149.458 177.419 149.458 177.449V178.611H146.003V177.449C146.003 177.419 145.997 177.389 145.986 177.361C145.974 177.333 145.957 177.308 145.936 177.286C145.914 177.265 145.889 177.248 145.861 177.236C145.833 177.225 145.803 177.219 145.773 177.219H140.244C140.214 177.219 140.184 177.225 140.156 177.236C140.128 177.248 140.103 177.265 140.081 177.286C140.06 177.308 140.043 177.333 140.031 177.361C140.02 177.389 140.014 177.419 140.014 177.449V178.611H136.559V177.449C136.559 177.419 136.553 177.389 136.541 177.361C136.529 177.333 136.512 177.308 136.491 177.286C136.47 177.265 136.444 177.248 136.416 177.236C136.388 177.225 136.358 177.219 136.328 177.219H93.0219C92.9916 177.219 92.9617 177.225 92.9337 177.236C92.9058 177.248 92.8804 177.265 92.859 177.286C92.8376 177.308 92.8206 177.333 92.8091 177.361C92.7975 177.389 92.7915 177.419 92.7915 177.449V178.611H89.3362V177.449C89.3362 177.419 89.3303 177.389 89.3187 177.361C89.3071 177.333 89.2902 177.308 89.2688 177.286C89.2474 177.265 89.222 177.248 89.194 177.236C89.1661 177.225 89.1361 177.219 89.1059 177.219H83.5774C83.5472 177.219 83.5172 177.225 83.4893 177.236C83.4613 177.248 83.4359 177.265 83.4145 177.286C83.3931 177.308 83.3762 177.333 83.3646 177.361C83.353 177.389 83.3471 177.419 83.3471 177.449V178.611H79.8918V177.449C79.8918 177.419 79.8858 177.389 79.8742 177.361C79.8626 177.333 79.8457 177.308 79.8243 177.286C79.8029 177.265 79.7775 177.248 79.7496 177.236C79.7216 177.225 79.6917 177.219 79.6614 177.219H74.1329C74.1027 177.219 74.0727 177.225 74.0448 177.236C74.0168 177.248 73.9914 177.265 73.97 177.286C73.9487 177.308 73.9317 177.333 73.9201 177.361C73.9085 177.389 73.9026 177.419 73.9026 177.449V178.611H70.4473V177.449C70.4473 177.419 70.4413 177.389 70.4298 177.361C70.4182 177.333 70.4012 177.308 70.3798 177.286C70.3584 177.265 70.333 177.248 70.3051 177.236C70.2771 177.225 70.2472 177.219 70.2169 177.219H64.6885C64.6582 177.219 64.6283 177.225 64.6003 177.236C64.5724 177.248 64.547 177.265 64.5256 177.286C64.5042 177.308 64.4872 177.333 64.4756 177.361C64.4641 177.389 64.4581 177.419 64.4581 177.449V178.611H61.0028V177.449C61.0028 177.419 60.9969 177.389 60.9853 177.361C60.9737 177.333 60.9568 177.308 60.9354 177.286C60.914 177.265 60.8886 177.248 60.8606 177.236C60.8327 177.225 60.8027 177.219 60.7725 177.219H55.244C55.2137 177.219 55.1838 177.225 55.1558 177.236C55.1279 177.248 55.1025 177.265 55.0811 177.286C55.0597 177.308 55.0428 177.333 55.0312 177.361C55.0196 177.389 55.0136 177.419 55.0136 177.449V178.611H51.5584V177.449C51.5584 177.419 51.5524 177.389 51.5408 177.361C51.5292 177.333 51.5123 177.308 51.4909 177.286C51.4695 177.265 51.4441 177.248 51.4161 177.236C51.3882 177.225 51.3582 177.219 51.328 177.219H45.7995C45.7693 177.219 45.7393 177.225 45.7114 177.236C45.6834 177.248 45.658 177.265 45.6366 177.286C45.6153 177.308 45.5983 177.333 45.5867 177.361C45.5751 177.389 45.5692 177.419 45.5692 177.449V178.611H42.1139V177.449C42.1139 177.419 42.1079 177.389 42.0963 177.361C42.0848 177.333 42.0678 177.308 42.0464 177.286C42.025 177.265 41.9996 177.248 41.9717 177.236C41.9437 177.225 41.9138 177.219 41.8835 177.219H36.3551C36.3248 177.219 36.2949 177.225 36.2669 177.236C36.239 177.248 36.2136 177.265 36.1922 177.286C36.1708 177.308 36.1538 177.333 36.1422 177.361C36.1307 177.389 36.1247 177.419 36.1247 177.449V178.611H25.5285C24.0622 178.611 22.656 179.193 21.6193 180.23C20.5825 181.267 20 182.673 20 184.139V186.639C20 188.105 20.5825 189.512 21.6193 190.548C22.656 191.585 24.0622 192.168 25.5285 192.168H209.35C210.816 192.168 212.223 191.585 213.259 190.548C214.296 189.512 214.879 188.105 214.879 186.639V184.139C214.879 182.673 214.296 181.267 213.259 180.23C212.223 179.193 210.816 178.611 209.35 178.611Z" fill="#3F3D56"/>
<path d="M62.971 167.369C59.0125 167.369 55.1429 166.195 51.8516 163.996C48.5602 161.796 45.9949 158.671 44.48 155.013C42.9652 151.356 42.5688 147.332 43.3411 143.45C44.1133 139.567 46.0195 136.001 48.8186 133.202C51.6177 130.403 55.184 128.496 59.0664 127.724C62.9488 126.952 66.9731 127.348 70.6303 128.863C74.2875 130.378 77.4133 132.943 79.6125 136.235C81.8118 139.526 82.9856 143.396 82.9856 147.354C82.9796 152.661 80.869 157.748 77.1168 161.5C73.3647 165.252 68.2774 167.363 62.971 167.369ZM62.971 127.866C59.1167 127.866 55.3489 129.009 52.1442 131.151C48.9394 133.292 46.4416 136.336 44.9666 139.897C43.4916 143.457 43.1057 147.376 43.8576 151.156C44.6096 154.936 46.4656 158.409 49.1911 161.134C51.9165 163.86 55.3889 165.716 59.1692 166.468C62.9494 167.22 66.8678 166.834 70.4287 165.359C73.9897 163.884 77.0333 161.386 79.1746 158.181C81.316 154.976 82.4589 151.209 82.4589 147.354C82.4531 142.187 80.398 137.234 76.7446 133.581C73.0912 129.927 68.1378 127.872 62.971 127.866Z" fill="#3F3D56"/>
<path d="M241.522 82.5702H174.368V83.0969H241.522V82.5702Z" fill="#3F3D56"/>
<path d="M320 221.619H126.965V222.145H320V221.619Z" fill="#3F3D56"/>
<path d="M137.894 245.847H70.7399V246.374H137.894V245.847Z" fill="#3F3D56"/>
<path d="M151.411 218.842H144.038V226.216H151.411V218.842Z" fill="#F9A826"/>
<path d="M155.888 222.002H146.934V213.048H155.888V222.002ZM147.324 221.613H155.499V213.438H147.324V221.613Z" fill="#3F3D56"/>
<path d="M237 79.7937H229.626V87.1675H237V79.7937Z" fill="#F9A826"/>
<path d="M241.477 82.9539H232.523V74H241.477V82.9539ZM232.912 82.5646H241.088V74.3893H232.912V82.5646Z" fill="#3F3D56"/>
<path d="M311.264 218.842H303.891V226.216H311.264V218.842Z" fill="#F9A826"/>
<path d="M315.741 222.002H306.788V213.048H315.741V222.002ZM307.177 221.613H315.352V213.438H307.177V221.613Z" fill="#3F3D56"/>
<path d="M298.406 135.086H297.779V117.926C297.779 116.622 297.522 115.33 297.023 114.125C296.524 112.92 295.792 111.825 294.87 110.903C293.948 109.981 292.853 109.249 291.648 108.75C290.443 108.251 289.151 107.994 287.847 107.994H251.491C250.187 107.994 248.895 108.251 247.69 108.75C246.485 109.249 245.39 109.981 244.468 110.903C243.546 111.825 242.814 112.92 242.315 114.125C241.816 115.33 241.559 116.622 241.559 117.926V212.068C241.559 213.373 241.816 214.664 242.315 215.869C242.814 217.074 243.546 218.169 244.468 219.091C245.39 220.013 246.485 220.745 247.69 221.244C248.895 221.743 250.187 222 251.491 222H287.847C289.151 222 290.443 221.743 291.648 221.244C292.853 220.745 293.948 220.013 294.87 219.091C295.792 218.169 296.524 217.074 297.023 215.869C297.522 214.664 297.779 213.373 297.779 212.068V147.301H298.406V135.086Z" fill="#3F3D56"/>
<path d="M295.664 118.51V212.515C295.664 214.482 294.883 216.369 293.492 217.76C292.102 219.151 290.215 219.933 288.248 219.933H251.716C249.749 219.933 247.863 219.151 246.472 217.76C245.081 216.369 244.3 214.482 244.3 212.515V118.51C244.301 116.543 245.082 114.657 246.473 113.266C247.863 111.875 249.75 111.094 251.716 111.094H256.148C255.93 111.629 255.847 112.209 255.906 112.784C255.965 113.359 256.165 113.91 256.487 114.39C256.809 114.869 257.245 115.262 257.755 115.534C258.265 115.805 258.834 115.947 259.411 115.947H280.24C280.817 115.947 281.386 115.805 281.896 115.534C282.406 115.262 282.842 114.869 283.164 114.39C283.486 113.91 283.686 113.359 283.745 112.784C283.804 112.209 283.721 111.629 283.503 111.094H288.248C290.215 111.094 292.101 111.875 293.492 113.266C294.882 114.657 295.664 116.543 295.664 118.51Z" fill="#F9A826"/>
<path d="M275.424 173.077H264.541V176.302H275.424V173.077Z" fill="#3F3D56"/>
<path d="M288.58 147.968H251.384V149.35H288.58V147.968Z" fill="#3F3D56"/>
<path d="M288.58 152.345H251.384V153.727H288.58V152.345Z" fill="#3F3D56"/>
<path d="M288.58 156.722H251.384V158.104H288.58V156.722Z" fill="#3F3D56"/>
<path d="M288.58 161.098H251.384V162.481H288.58V161.098Z" fill="#3F3D56"/>
<path d="M288.58 165.475H251.384V166.857H288.58V165.475Z" fill="#3F3D56"/>
<path d="M271.282 129.614H264.832V136.064H271.282V129.614Z" fill="#F2F2F2"/>
<path d="M267.301 131.227V139.059H275.133V131.227H267.301ZM274.793 138.719H267.64V131.566H274.793V138.719Z" fill="#3F3D56"/>
<path opacity="0.1" d="M295.664 202.476V212.515C295.664 214.482 294.883 216.369 293.492 217.76C292.102 219.151 290.215 219.933 288.248 219.933H251.716C249.749 219.933 247.863 219.151 246.472 217.76C245.081 216.369 244.3 214.482 244.3 212.515V161.896L275.078 186.211L275.605 186.628L281.33 191.149L281.865 191.573L295.664 202.476Z" fill="black"/>
<path d="M266.822 216.887C273.202 216.887 278.375 211.714 278.375 205.334C278.375 198.954 273.202 193.782 266.822 193.782C260.442 193.782 255.269 198.954 255.269 205.334C255.269 211.714 260.442 216.887 266.822 216.887Z" fill="#F2F2F2"/>
<path d="M104.317 246.374C99.7855 246.374 95.3559 245.03 91.5881 242.512C87.8203 239.995 84.8837 236.417 83.1496 232.23C81.4155 228.044 80.9618 223.437 81.8458 218.992C82.7299 214.548 84.912 210.466 88.1162 207.261C91.3204 204.057 95.4028 201.875 99.8472 200.991C104.292 200.107 108.898 200.561 113.085 202.295C117.271 204.029 120.85 206.966 123.367 210.733C125.885 214.501 127.228 218.931 127.228 223.462C127.222 229.537 124.805 235.36 120.51 239.655C116.215 243.951 110.391 246.367 104.317 246.374ZM104.317 201.078C99.8897 201.078 95.5619 202.39 91.8807 204.85C88.1996 207.31 85.3305 210.806 83.6362 214.896C81.942 218.986 81.4987 223.487 82.3624 227.829C83.2261 232.171 85.3581 236.16 88.4886 239.291C91.6192 242.421 95.6077 244.553 99.95 245.417C104.292 246.281 108.793 245.837 112.883 244.143C116.974 242.449 120.47 239.58 122.929 235.898C125.389 232.217 126.702 227.889 126.702 223.462C126.695 217.527 124.334 211.838 120.138 207.641C115.941 203.445 110.252 201.084 104.317 201.078Z" fill="#3F3D56"/>
<path d="M270.227 214.245C267.362 214.245 264.562 213.395 262.18 211.804C259.798 210.212 257.942 207.95 256.845 205.304C255.749 202.657 255.462 199.745 256.021 196.935C256.58 194.125 257.96 191.545 259.985 189.519C262.011 187.493 264.592 186.114 267.401 185.555C270.211 184.996 273.123 185.283 275.77 186.379C278.417 187.475 280.679 189.332 282.27 191.714C283.862 194.096 284.711 196.896 284.711 199.761C284.707 203.601 283.18 207.282 280.464 209.998C277.749 212.713 274.067 214.241 270.227 214.245ZM270.227 185.803C267.467 185.803 264.768 186.622 262.473 188.155C260.177 189.689 258.388 191.869 257.332 194.419C256.276 196.97 255.999 199.776 256.538 202.484C257.076 205.191 258.406 207.678 260.358 209.63C262.31 211.582 264.797 212.912 267.504 213.45C270.212 213.989 273.018 213.712 275.568 212.656C278.119 211.599 280.299 209.81 281.832 207.515C283.366 205.22 284.185 202.521 284.185 199.761C284.18 196.06 282.709 192.513 280.092 189.896C277.475 187.279 273.928 185.807 270.227 185.803Z" fill="#3F3D56"/>
</g>
<rect x="0.5" y="0.5" width="319" height="319" rx="159.5" stroke="#F4A261"/>
<defs>
<clipPath id="clip0">
<rect width="300" height="172.374" fill="white" transform="translate(20 74)"/>
</clipPath>
</defs>
</svg>
