<svg width="320" height="320" viewBox="0 0 320 320" fill="none" xmlns="http://www.w3.org/2000/svg">
<rect x="0.5" y="0.5" width="319" height="319" rx="159.5" fill="white"/>
<g clip-path="url(#clip0)">
<path d="M76.4773 75.1762H57.3458C55.5064 75.1779 53.743 75.9093 52.4424 77.2099C51.1418 78.5105 50.4104 80.274 50.4087 82.1133V102.855C50.1641 102.84 49.9195 102.818 49.6785 102.789C45.1461 102.312 40.837 100.579 37.237 97.7841C33.6371 94.9893 30.8896 91.2443 29.3041 86.9716C27.7187 82.6988 27.3584 78.068 28.2639 73.6014C29.1694 69.1349 31.3047 65.01 34.4291 61.6921C37.5534 58.3741 41.5426 55.995 45.9467 54.8229C50.3509 53.6507 54.9949 53.7323 59.3552 55.0583C63.7155 56.3843 67.6186 58.902 70.6245 62.3276C73.6305 65.7532 75.6197 69.9504 76.3679 74.446C76.408 74.687 76.4446 74.9316 76.4773 75.1762Z" fill="#F2F2F2"/>
<path d="M302.333 74.446H57.3458C55.313 74.4482 53.3641 75.2567 51.9266 76.6941C50.4892 78.1316 49.6807 80.0805 49.6785 82.1133V211.361C49.6807 213.394 50.4892 215.343 51.9266 216.78C53.3641 218.218 55.313 219.026 57.3458 219.029H302.333C304.366 219.026 306.314 218.218 307.752 216.78C309.189 215.343 309.998 213.394 310 211.361V82.1133C309.998 80.0805 309.189 78.1316 307.752 76.6941C306.314 75.2567 304.366 74.4482 302.333 74.446ZM309.27 211.361C309.268 213.201 308.537 214.964 307.236 216.265C305.936 217.565 304.172 218.297 302.333 218.298H57.3458C55.5064 218.297 53.7429 217.565 52.4424 216.265C51.1418 214.964 50.4104 213.201 50.4087 211.361V82.1133C50.4104 80.274 51.1418 78.5105 52.4424 77.2099C53.7429 75.9093 55.5064 75.1779 57.3458 75.1762H302.333C304.172 75.1779 305.936 75.9093 307.236 77.2099C308.537 78.5105 309.268 80.274 309.27 82.1133V211.361Z" fill="#3F3D56"/>
<path d="M290.284 95.3921H69.3943C69.2974 95.3921 69.2046 95.3536 69.1361 95.2851C69.0676 95.2167 69.0292 95.1238 69.0292 95.027C69.0292 94.9301 69.0676 94.8373 69.1361 94.7688C69.2046 94.7003 69.2974 94.6619 69.3943 94.6619H290.284C290.381 94.6619 290.474 94.7003 290.542 94.7688C290.611 94.8373 290.649 94.9301 290.649 95.027C290.649 95.1238 290.611 95.2167 290.542 95.2851C290.474 95.3536 290.381 95.3921 290.284 95.3921Z" fill="#3F3D56"/>
<path d="M131.828 203.329C131.731 203.329 131.638 203.29 131.569 203.222C131.501 203.153 131.463 203.061 131.463 202.964V82.8435C131.463 82.7466 131.501 82.6538 131.569 82.5853C131.638 82.5168 131.731 82.4784 131.828 82.4784C131.924 82.4784 132.017 82.5168 132.086 82.5853C132.154 82.6538 132.193 82.7466 132.193 82.8435V202.964C132.193 203.061 132.154 203.153 132.086 203.222C132.017 203.29 131.924 203.329 131.828 203.329Z" fill="#3F3D56"/>
<path d="M186.959 203.329C186.862 203.329 186.769 203.29 186.701 203.222C186.632 203.153 186.594 203.061 186.594 202.964V82.8435C186.594 82.7466 186.632 82.6538 186.701 82.5853C186.769 82.5168 186.862 82.4784 186.959 82.4784C187.056 82.4784 187.149 82.5168 187.217 82.5853C187.285 82.6538 187.324 82.7466 187.324 82.8435V202.964C187.324 203.061 187.285 203.153 187.217 203.222C187.149 203.29 187.056 203.329 186.959 203.329Z" fill="#3F3D56"/>
<path d="M242.09 203.329C241.993 203.329 241.9 203.29 241.832 203.222C241.763 203.153 241.725 203.061 241.725 202.964V82.8435C241.725 82.7466 241.763 82.6538 241.832 82.5853C241.9 82.5168 241.993 82.4784 242.09 82.4784C242.187 82.4784 242.28 82.5168 242.348 82.5853C242.417 82.6538 242.455 82.7466 242.455 82.8435V202.964C242.455 203.061 242.417 203.153 242.348 203.222C242.28 203.29 242.187 203.329 242.09 203.329Z" fill="#3F3D56"/>
<path d="M96.3815 133.078H83.0404C82.6048 133.077 82.1872 132.904 81.8792 132.596C81.5712 132.288 81.3979 131.87 81.3974 131.435V115.691C81.3979 115.256 81.5712 114.838 81.8792 114.53C82.1872 114.222 82.6048 114.049 83.0404 114.048H96.3815C96.8171 114.049 97.2347 114.222 97.5427 114.53C97.8507 114.838 98.024 115.256 98.0244 115.691V131.435C98.024 131.87 97.8507 132.288 97.5427 132.596C97.2347 132.904 96.817 133.077 96.3815 133.078Z" fill="#F9A826"/>
<path d="M115.367 177.986H102.026C101.59 177.985 101.173 177.812 100.865 177.504C100.557 177.196 100.384 176.778 100.383 176.343V160.6C100.384 160.164 100.557 159.746 100.865 159.438C101.173 159.13 101.59 158.957 102.026 158.957H115.367C115.803 158.957 116.22 159.13 116.528 159.438C116.836 159.746 117.01 160.164 117.01 160.6V176.343C117.01 176.778 116.836 177.196 116.528 177.504C116.22 177.812 115.803 177.985 115.367 177.986Z" fill="#F9A826"/>
<path d="M158.45 142.57H145.109C144.673 142.57 144.256 142.397 143.948 142.089C143.639 141.781 143.466 141.363 143.466 140.927V125.184C143.466 124.749 143.639 124.331 143.948 124.023C144.256 123.715 144.673 123.542 145.109 123.541H158.45C158.885 123.542 159.303 123.715 159.611 124.023C159.919 124.331 160.092 124.749 160.093 125.184V140.927C160.092 141.363 159.919 141.781 159.611 142.089C159.303 142.397 158.885 142.57 158.45 142.57Z" fill="#F9A826"/>
<path d="M214.311 125.41H200.97C200.535 125.41 200.117 125.237 199.809 124.929C199.501 124.621 199.328 124.203 199.327 123.767V108.024C199.328 107.589 199.501 107.171 199.809 106.863C200.117 106.555 200.535 106.382 200.97 106.381H214.311C214.747 106.382 215.164 106.555 215.472 106.863C215.78 107.171 215.954 107.589 215.954 108.024V123.767C215.954 124.203 215.78 124.621 215.472 124.929C215.164 125.237 214.747 125.41 214.311 125.41Z" fill="#F9A826"/>
<path d="M265.791 125.41H252.45C252.015 125.41 251.597 125.237 251.289 124.929C250.981 124.621 250.808 124.203 250.807 123.767V108.024C250.808 107.589 250.981 107.171 251.289 106.863C251.597 106.555 252.015 106.382 252.45 106.381H265.791C266.227 106.382 266.644 106.555 266.952 106.863C267.261 107.171 267.434 107.589 267.434 108.024V123.767C267.434 124.203 267.261 124.621 266.952 124.929C266.644 125.237 266.227 125.41 265.791 125.41Z" fill="#F9A826"/>
<path d="M289.523 129.792H276.182C275.747 129.791 275.329 129.618 275.021 129.31C274.713 129.002 274.54 128.584 274.539 128.149V112.405C274.54 111.97 274.713 111.552 275.021 111.244C275.329 110.936 275.747 110.763 276.182 110.762H289.523C289.959 110.763 290.376 110.936 290.684 111.244C290.992 111.552 291.166 111.97 291.166 112.405V128.149C291.166 128.584 290.992 129.002 290.684 129.31C290.376 129.618 289.959 129.791 289.523 129.792Z" fill="#E6E6E6"/>
<path d="M278.935 157.905H265.594C265.159 157.904 264.741 157.731 264.433 157.423C264.125 157.115 263.952 156.698 263.951 156.262V140.519C263.952 140.083 264.125 139.665 264.433 139.357C264.741 139.049 265.159 138.876 265.594 138.876H278.935C279.371 138.876 279.788 139.049 280.096 139.357C280.404 139.665 280.578 140.083 280.578 140.519V156.262C280.578 156.698 280.404 157.115 280.096 157.423C279.788 157.731 279.371 157.904 278.935 157.905Z" fill="#E6E6E6"/>
<path d="M233.662 152.063H220.321C219.885 152.063 219.468 151.889 219.16 151.581C218.852 151.273 218.678 150.856 218.678 150.42V134.677C218.678 134.241 218.852 133.824 219.16 133.516C219.468 133.208 219.885 133.034 220.321 133.034H233.662C234.097 133.034 234.515 133.208 234.823 133.516C235.131 133.824 235.304 134.241 235.305 134.677V150.42C235.304 150.856 235.131 151.273 234.823 151.581C234.515 151.889 234.097 152.063 233.662 152.063Z" fill="#FF6584"/>
<path d="M207.739 157.905H194.398C193.963 157.904 193.545 157.731 193.237 157.423C192.929 157.115 192.756 156.698 192.755 156.262V140.519C192.756 140.083 192.929 139.665 193.237 139.357C193.545 139.049 193.963 138.876 194.398 138.876H207.739C208.175 138.876 208.592 139.049 208.9 139.357C209.208 139.665 209.382 140.083 209.382 140.519V156.262C209.382 156.698 209.208 157.115 208.9 157.423C208.592 157.731 208.175 157.904 207.739 157.905Z" fill="#E6E6E6"/>
<path d="M151.878 182.732H138.537C138.101 182.732 137.684 182.558 137.376 182.25C137.068 181.942 136.894 181.525 136.894 181.089V165.346C136.894 164.91 137.068 164.493 137.376 164.185C137.684 163.877 138.101 163.703 138.537 163.703H151.878C152.313 163.703 152.731 163.877 153.039 164.185C153.347 164.493 153.52 164.91 153.521 165.346V181.089C153.52 181.525 153.347 181.942 153.039 182.25C152.731 182.558 152.313 182.732 151.878 182.732Z" fill="#E6E6E6"/>
<path d="M84.3329 161.921H70.9919C70.5563 161.921 70.1387 161.747 69.8307 161.439C69.5226 161.131 69.3494 160.714 69.3489 160.278V144.535C69.3494 144.099 69.5226 143.682 69.8307 143.374C70.1387 143.066 70.5563 142.892 70.9919 142.892H84.3329C84.7685 142.892 85.1861 143.066 85.4941 143.374C85.8022 143.682 85.9754 144.099 85.9759 144.535V160.278C85.9754 160.714 85.8022 161.131 85.4941 161.439C85.1861 161.747 84.7685 161.921 84.3329 161.921Z" fill="#FF6584"/>
<path d="M121.939 133.078H108.598C108.162 133.077 107.745 132.904 107.437 132.596C107.129 132.288 106.955 131.87 106.955 131.435V115.691C106.955 115.256 107.129 114.838 107.437 114.53C107.745 114.222 108.162 114.049 108.598 114.048H121.939C122.375 114.049 122.792 114.222 123.1 114.53C123.408 114.838 123.581 115.256 123.582 115.691V131.435C123.581 131.87 123.408 132.288 123.1 132.596C122.792 132.904 122.375 133.077 121.939 133.078Z" fill="#E6E6E6"/>
<path d="M111.017 89.4154H90.2054C89.8181 89.4154 89.4466 89.2615 89.1727 88.9877C88.8988 88.7138 88.745 88.3423 88.745 87.955C88.745 87.5676 88.8988 87.1962 89.1727 86.9223C89.4466 86.6484 89.8181 86.4945 90.2054 86.4945H111.017C111.404 86.4945 111.775 86.6484 112.049 86.9223C112.323 87.1962 112.477 87.5676 112.477 87.955C112.477 88.3423 112.323 88.7138 112.049 88.9877C111.775 89.2615 111.404 89.4154 111.017 89.4154Z" fill="#CCCCCC"/>
<path d="M169.799 89.4154H148.988C148.6 89.4154 148.229 89.2615 147.955 88.9877C147.681 88.7138 147.527 88.3423 147.527 87.955C147.527 87.5676 147.681 87.1962 147.955 86.9223C148.229 86.6484 148.6 86.4945 148.988 86.4945H169.799C170.186 86.4945 170.558 86.6484 170.831 86.9223C171.105 87.1962 171.259 87.5676 171.259 87.955C171.259 88.3423 171.105 88.7138 170.831 88.9877C170.558 89.2615 170.186 89.4154 169.799 89.4154Z" fill="#CCCCCC"/>
<path d="M224.93 89.4154H204.119C203.732 89.4154 203.36 89.2615 203.086 88.9877C202.812 88.7138 202.658 88.3423 202.658 87.955C202.658 87.5676 202.812 87.1962 203.086 86.9223C203.36 86.6484 203.732 86.4945 204.119 86.4945H224.93C225.317 86.4945 225.689 86.6484 225.963 86.9223C226.237 87.1962 226.39 87.5676 226.39 87.955C226.39 88.3423 226.237 88.7138 225.963 88.9877C225.689 89.2615 225.317 89.4154 224.93 89.4154Z" fill="#CCCCCC"/>
<path d="M276.41 89.4154H255.599C255.212 89.4154 254.84 89.2615 254.566 88.9877C254.292 88.7138 254.139 88.3423 254.139 87.955C254.139 87.5676 254.292 87.1962 254.566 86.9223C254.84 86.6484 255.212 86.4945 255.599 86.4945H276.41C276.797 86.4945 277.169 86.6484 277.443 86.9223C277.717 87.1962 277.871 87.5676 277.871 87.955C277.871 88.3423 277.717 88.7138 277.443 88.9877C277.169 89.2615 276.797 89.4154 276.41 89.4154Z" fill="#CCCCCC"/>
<path d="M64.4044 196.352C63.8702 196.3 63.3539 196.131 62.8921 195.858C62.4302 195.584 62.0338 195.213 61.731 194.77C61.4281 194.327 61.2262 193.822 61.1392 193.293C61.0523 192.763 61.0826 192.221 61.2279 191.704L51.8691 182.992L56.8174 181.737L66.0202 189.201C66.872 189.503 67.5836 190.107 68.0201 190.898C68.4566 191.689 68.5876 192.613 68.3885 193.494C68.1893 194.376 67.6737 195.154 66.9394 195.68C66.2051 196.207 65.3031 196.446 64.4044 196.352Z" fill="#FFB8B8"/>
<path d="M77.3273 260.743H81.8035L83.9328 243.478H77.3265L77.3273 260.743Z" fill="#FFB8B8"/>
<path d="M90.4361 264.899L76.3682 264.9L76.368 259.464L85.0005 259.464C86.442 259.464 87.8246 260.036 88.8439 261.056C89.8633 262.075 90.436 263.457 90.4361 264.899L90.4361 264.899Z" fill="#2F2E41"/>
<path d="M46.6367 257.511L50.9625 258.663L57.4618 242.526L51.0779 240.827L46.6367 257.511Z" fill="#FFB8B8"/>
<path d="M58.2354 264.9L44.641 261.282L46.039 256.029L54.3811 258.25C55.7741 258.621 56.9628 259.53 57.6856 260.777C58.4085 262.024 58.6062 263.507 58.2354 264.9Z" fill="#2F2E41"/>
<path d="M83.0072 257.474H76.177C75.7456 257.476 75.3292 257.316 75.0099 257.026C74.6905 256.736 74.4913 256.336 74.4515 255.907L70.3052 212.849C70.2748 212.533 70.1356 212.238 69.9114 212.013C69.6872 211.789 69.3919 211.649 69.0761 211.618C68.7603 211.588 68.4436 211.667 68.1802 211.844C67.9168 212.021 67.7231 212.284 67.6322 212.588L55.5934 252.823C55.466 253.25 55.1785 253.612 54.7908 253.833C54.403 254.054 53.945 254.117 53.5123 254.008L47.1583 252.419C46.9365 252.364 46.7279 252.265 46.5444 252.129C46.361 251.992 46.2063 251.821 46.0893 251.624C45.9723 251.428 45.8953 251.211 45.8628 250.984C45.8302 250.758 45.8428 250.528 45.8996 250.306C46.0034 249.901 56.2726 209.769 56.3622 209.356C58.689 192.208 61.4727 187.613 62.9681 185.144C63.0919 184.94 63.2057 184.752 63.3081 184.575C63.4363 184.353 64.2254 182.149 64.726 180.718C64.791 180.485 64.9036 180.268 65.0566 180.081C65.2096 179.894 65.3998 179.74 65.6151 179.63C71.8988 176.417 79.2509 178.641 81.3545 179.4C81.7033 179.523 82.0028 179.755 82.2082 180.063C88.519 189.581 85.422 244.866 84.737 255.852C84.7085 256.291 84.5139 256.704 84.1926 257.005C83.8714 257.306 83.4476 257.474 83.0072 257.474Z" fill="#2F2E41"/>
<path d="M65.381 148.411C70.3335 148.411 74.3484 144.397 74.3484 139.444C74.3484 134.491 70.3335 130.477 65.381 130.477C60.4284 130.477 56.4135 134.491 56.4135 139.444C56.4135 144.397 60.4284 148.411 65.381 148.411Z" fill="#FFB8B8"/>
<path d="M64.4308 182.459L64.3664 182.396C64.2455 182.279 52.2975 170.574 53.8438 159.751C54.5051 155.121 58.2508 152.163 64.6757 151.196C67.0361 150.845 69.4437 151.359 71.456 152.641C73.4682 153.924 74.95 155.889 75.6288 158.177L81.9817 179.895L64.4308 182.459Z" fill="#CCCCCC"/>
<path d="M58.3156 190.784L49.8019 182.324C49.2198 181.742 48.7971 181.021 48.5746 180.228C48.3521 179.436 48.3373 178.6 48.5314 177.8L52.653 161.035C52.7764 160.532 53.0017 160.06 53.3148 159.649C53.6279 159.237 54.0222 158.894 54.4733 158.64C54.9244 158.387 55.4226 158.229 55.9372 158.176C56.4519 158.123 56.9719 158.176 57.4651 158.333C58.4051 158.636 59.1903 159.293 59.6544 160.165C60.1184 161.036 60.2248 162.055 59.9511 163.004L55.612 177.753L62.6287 185.287L58.3156 190.784Z" fill="#CCCCCC"/>
<path d="M103.98 161.912C103.755 162.399 103.426 162.831 103.016 163.177C102.606 163.524 102.125 163.776 101.607 163.916C101.088 164.056 100.546 164.081 100.017 163.989C99.4883 163.897 98.9862 163.69 98.5461 163.383L87.1805 169.274L87.6828 164.27L97.7586 158.034C98.3237 157.329 99.1278 156.855 100.019 156.703C100.909 156.551 101.825 156.732 102.592 157.21C103.359 157.688 103.924 158.43 104.18 159.297C104.435 160.164 104.365 161.094 103.98 161.912H103.98Z" fill="#FFB8B8"/>
<path d="M97.3049 165.637L86.2253 170.425C85.4878 170.741 84.6814 170.862 83.8836 170.776C83.0858 170.691 82.3234 170.401 81.6698 169.936L67.5807 159.841C67.1602 159.54 66.806 159.155 66.5401 158.712C66.2741 158.268 66.102 157.775 66.0345 157.262C65.967 156.749 66.0054 156.227 66.1474 155.73C66.2894 155.233 66.532 154.77 66.8602 154.37C67.4908 153.609 68.3926 153.125 69.3745 153.018C70.3565 152.911 71.3415 153.19 72.1209 153.797L84.2017 163.305L93.8041 159.59L97.3049 165.637Z" fill="#CCCCCC"/>
<path d="M66.8676 142.317C67.9739 140.931 70.0407 140.857 71.5603 139.943C73.5508 138.745 74.3737 136.068 73.7323 133.836C73.0908 131.603 71.1991 129.863 69.0303 129.031C66.8614 128.199 64.4484 128.188 62.1604 128.591C58.7539 129.19 55.4001 130.779 53.3224 133.545C51.2448 136.31 50.7161 140.36 52.599 143.261C53.4644 144.595 54.8003 145.695 55.1458 147.247C55.5994 149.284 54.1704 151.249 52.6396 152.667C50.8956 154.283 48.8947 155.637 47.3668 157.459C45.8388 159.28 44.8199 161.769 45.5171 164.042C46.1013 165.947 47.8012 167.35 49.6653 168.053C51.5293 168.755 53.5595 168.857 55.5513 168.896C57.4853 168.934 59.5396 168.887 61.1688 167.844C62.913 166.728 63.8442 164.61 63.913 162.54C63.9818 160.47 63.2902 158.443 62.3633 156.591C61.8108 155.487 61.1684 154.417 60.8013 153.239C60.4342 152.06 60.3706 150.723 60.9585 149.638C61.5765 148.497 62.8268 147.809 64.0999 147.559C64.1661 147.546 64.2361 147.534 64.3093 147.524C64.6715 147.477 65.0204 147.357 65.335 147.171C65.6495 146.986 65.9232 146.738 66.1393 146.444C66.3554 146.149 66.5096 145.814 66.5925 145.458C66.6754 145.103 66.6853 144.734 66.6216 144.374C66.4765 143.566 66.4891 142.792 66.8676 142.317Z" fill="#2F2E41"/>
<path d="M186.43 261.125H181.954L179.825 243.86L186.431 243.861L186.43 261.125Z" fill="#A0616A"/>
<path d="M178.757 259.846H187.39V265.282H173.322C173.322 264.568 173.462 263.861 173.735 263.202C174.009 262.542 174.409 261.943 174.914 261.438C175.418 260.934 176.018 260.533 176.677 260.26C177.336 259.987 178.043 259.846 178.757 259.846Z" fill="#2F2E41"/>
<path d="M218.909 256.055L214.837 257.915L205.726 243.095L211.736 240.35L218.909 256.055Z" fill="#A0616A"/>
<path d="M211.397 258.08L219.25 254.493L221.508 259.437L208.712 265.282C208.415 264.633 208.249 263.931 208.224 263.218C208.198 262.505 208.314 261.793 208.563 261.125C208.812 260.456 209.191 259.843 209.677 259.32C210.164 258.798 210.748 258.376 211.397 258.08Z" fill="#2F2E41"/>
<path d="M205.873 202.912C206.302 202.589 206.655 202.176 206.907 201.702C207.159 201.228 207.304 200.705 207.332 200.169C207.36 199.633 207.27 199.097 207.069 198.6C206.867 198.102 206.559 197.655 206.166 197.289L211.428 185.351L204.743 186.483L200.771 197.647C200.201 198.348 199.908 199.234 199.947 200.137C199.986 201.04 200.355 201.897 200.984 202.546C201.613 203.194 202.458 203.59 203.359 203.658C204.26 203.725 205.155 203.46 205.873 202.912Z" fill="#A0616A"/>
<path d="M186.145 256.573H181.869C181.454 256.572 181.055 256.414 180.752 256.132C180.448 255.849 180.262 255.463 180.23 255.049L177.898 192.777C177.881 192.538 177.916 192.299 178.001 192.075C178.086 191.851 178.218 191.649 178.39 191.482C178.561 191.315 178.767 191.187 178.992 191.108C179.218 191.028 179.458 190.999 179.697 191.023L204.427 193.649C204.828 193.688 205.2 193.873 205.474 194.169C205.747 194.465 205.903 194.851 205.91 195.253L206.429 222.722C206.431 222.871 206.46 223.019 206.514 223.158L216.658 249.465C216.737 249.668 216.774 249.885 216.768 250.103C216.762 250.32 216.712 250.535 216.622 250.733C216.533 250.932 216.404 251.11 216.245 251.259C216.085 251.407 215.898 251.522 215.693 251.597L211.36 253.194C210.984 253.333 210.57 253.329 210.196 253.183C209.822 253.038 209.515 252.76 209.331 252.404L196.869 228.172C196.801 228.04 196.752 227.9 196.722 227.755L194.593 217.498C194.531 217.2 194.365 216.935 194.125 216.748C193.886 216.562 193.587 216.467 193.284 216.481C192.98 216.494 192.692 216.616 192.47 216.823C192.248 217.03 192.107 217.31 192.072 217.612L187.777 255.117C187.732 255.518 187.54 255.888 187.239 256.156C186.938 256.425 186.549 256.573 186.145 256.573Z" fill="#2F2E41"/>
<path d="M188.274 144.086C193.227 144.086 197.242 140.071 197.242 135.119C197.242 130.166 193.227 126.151 188.274 126.151C183.322 126.151 179.307 130.166 179.307 135.119C179.307 140.071 183.322 144.086 188.274 144.086Z" fill="#A0616A"/>
<path d="M194.424 198.471C188.343 198.404 182.407 196.606 177.311 193.287L177.223 193.227L177.232 193.121L180.662 153.172C180.781 151.817 181.386 150.55 182.366 149.607C183.345 148.663 184.634 148.106 185.993 148.038C190.438 147.834 196.409 148.092 199.606 150.472C204.437 154.07 206.765 159.488 205.994 165.337C204.395 177.465 206.206 193.826 206.418 195.651L206.433 195.783L206.313 195.838C202.589 197.571 198.531 198.469 194.424 198.471Z" fill="#F9A826"/>
<path d="M206.377 195.719C206.124 195.719 205.874 195.666 205.643 195.564C205.411 195.462 205.204 195.313 205.033 195.127L203.071 192.987C202.859 192.754 202.711 192.471 202.64 192.165C202.569 191.858 202.578 191.538 202.666 191.236L207.139 176.098L200.333 161.806C200.016 161.137 199.938 160.379 200.113 159.659C200.267 159.028 200.61 158.458 201.095 158.024C201.58 157.591 202.185 157.315 202.83 157.233C203.475 157.15 204.13 157.266 204.708 157.563C205.286 157.86 205.761 158.326 206.069 158.898L215.304 173.883C215.68 174.491 215.9 175.182 215.946 175.895C215.991 176.608 215.862 177.321 215.567 177.972L208.042 194.644C207.919 194.92 207.728 195.16 207.488 195.344C207.248 195.528 206.966 195.648 206.667 195.696C206.571 195.711 206.474 195.719 206.377 195.719Z" fill="#F9A826"/>
<path d="M143.168 166.801C143.599 167.121 144.095 167.343 144.621 167.451C145.146 167.559 145.689 167.551 146.211 167.426C146.734 167.302 147.222 167.064 147.642 166.73C148.063 166.397 148.405 165.975 148.645 165.495L161.583 167.173L158.61 161.08L146.779 160.42C145.945 160.071 145.013 160.04 144.158 160.332C143.303 160.625 142.585 161.22 142.14 162.007C141.695 162.793 141.554 163.716 141.743 164.599C141.933 165.483 142.44 166.266 143.168 166.801V166.801Z" fill="#A0616A"/>
<path d="M171.688 170.129C171.462 170.129 171.237 170.113 171.014 170.082L150.659 167.259C150.326 167.213 150.01 167.085 149.739 166.887C149.468 166.689 149.251 166.426 149.107 166.123C149.06 166.025 149.022 165.924 148.991 165.82H148.991C148.912 165.551 148.89 165.268 148.926 164.989C148.962 164.711 149.056 164.443 149.201 164.202L150.885 161.409C151.066 161.111 151.321 160.864 151.625 160.692C151.929 160.521 152.272 160.43 152.622 160.429H152.624L170.367 160.449L183.618 148.577C184.235 148.026 185.022 147.704 185.848 147.664C186.573 147.631 187.292 147.818 187.908 148.201C188.525 148.584 189.011 149.145 189.303 149.809C189.594 150.474 189.677 151.212 189.541 151.925C189.405 152.638 189.056 153.293 188.54 153.804L175.317 168.51C174.86 169.019 174.3 169.426 173.675 169.705C173.049 169.984 172.372 170.128 171.688 170.129Z" fill="#F9A826"/>
<path d="M189.294 143.096C190.113 141.2 190.807 138.674 189.235 137.333C188.323 136.555 187.01 136.554 185.816 136.457C182.45 136.184 178.986 134.636 177.341 131.687C175.696 128.739 176.615 124.354 179.718 123.024C181.81 122.127 184.208 122.738 186.398 123.359L192.972 125.223C194.925 125.777 196.976 126.388 198.382 127.853C200.625 130.188 200.457 134.137 198.676 136.841C196.895 139.545 194.212 142.365 191.141 143.392L189.294 143.096Z" fill="#2F2E41"/>
<path d="M279.991 265.401H10.4347C10.3775 265.401 10.3208 265.39 10.268 265.368C10.2151 265.346 10.167 265.314 10.1265 265.274C10.086 265.233 10.0539 265.185 10.0319 265.133C10.01 265.08 9.99872 265.023 9.99872 264.966C9.99872 264.909 10.01 264.852 10.0319 264.799C10.0539 264.746 10.086 264.698 10.1265 264.658C10.167 264.618 10.2151 264.586 10.268 264.564C10.3208 264.542 10.3775 264.531 10.4347 264.531H279.991C280.048 264.531 280.105 264.542 280.158 264.564C280.211 264.586 280.259 264.618 280.299 264.658C280.34 264.698 280.372 264.746 280.394 264.799C280.416 264.852 280.427 264.909 280.427 264.966C280.427 265.023 280.416 265.08 280.394 265.133C280.372 265.185 280.34 265.233 280.299 265.274C280.259 265.314 280.211 265.346 280.158 265.368C280.105 265.39 280.048 265.401 279.991 265.401Z" fill="#3F3D56"/>
</g>
<rect x="0.5" y="0.5" width="319" height="319" rx="159.5" stroke="#F4A261"/>
<defs>
<clipPath id="clip0">
<rect width="300" height="211.401" fill="white" transform="translate(10 54)"/>
</clipPath>
</defs>
</svg>
